<?xml version="1.0" standalone="no"?>
<!DOCTYPE svg PUBLIC "-//W3C//DTD SVG 20010904//EN"
 "http://www.w3.org/TR/2001/REC-SVG-20010904/DTD/svg10.dtd">
<svg version="1.0" xmlns="http://www.w3.org/2000/svg"
 width="320.000000pt" height="320.000000pt" viewBox="0 0 320.000000 320.000000"
 preserveAspectRatio="xMidYMid meet">
<metadata>
Created by potrace 1.11, written by Peter Selinger 2001-2013
</metadata>
<g transform="translate(0.000000,320.000000) scale(0.100000,-0.100000)"
fill="#000000" stroke="none">
<path d="M0 1600 l0 -1600 1600 0 1600 0 0 1600 0 1600 -1600 0 -1600 0 0
-1600z m1870 534 l0 -316 35 31 c105 92 267 131 417 100 144 -30 292 -149 362
-289 133 -271 53 -604 -182 -764 -194 -132 -443 -123 -602 21 l-40 35 0 -66 0
-66 -130 0 -130 0 0 815 0 815 135 0 135 0 0 -316z m-480 157 l0 -149 -472
-362 -473 -361 -22 28 -23 28 98 97 c115 115 886 867 890 867 1 1 2 -66 2
-148z m-136 -767 c9 -64 15 -118 12 -121 -3 -4 -730 -163 -743 -163 -2 0 -3
15 -3 33 l0 32 348 167 c191 92 352 168 358 168 6 0 18 -51 28 -116z m-384
-434 c179 -5 369 -13 423 -16 l97 -6 0 -124 c0 -68 -3 -124 -7 -124 -17 -1
-949 223 -956 230 -4 3 1 18 12 32 17 22 27 25 63 22 24 -2 189 -8 368 -14z"/>
<path d="M2093 1701 c-90 -23 -177 -107 -209 -203 -23 -71 -16 -206 15 -270
30 -62 86 -118 147 -148 74 -36 179 -34 256 3 65 32 116 87 150 163 33 73 31
199 -3 274 -54 117 -142 180 -259 186 -36 2 -79 -1 -97 -5z"/>
</g>
</svg>
