<?xml version="1.0" encoding="UTF-8"?>
<svg width="512px" height="512px" viewBox="0 0 512 512" version="1.1" xmlns="http://www.w3.org/2000/svg" xmlns:xlink="http://www.w3.org/1999/xlink">
    <!-- Generator: Sketch 56.3 (81716) - https://sketch.com -->
    <title>1</title>
    <desc>Created with Sketch.</desc>
    <g id="1" stroke="none" stroke-width="1" fill="none" fill-rule="evenodd">
        <g id="Group-39">
            <polygon id="Fill-1" fill="#FFFFFF" points="0 511.453502 511.453502 511.453502 511.453502 -1.13686838e-13 0 -1.13686838e-13"></polygon>
            <g id="Group-38" transform="translate(58.044920, 8.214999)">
                <path d="M115.857167,226.303179 C118.791721,226.414888 96.4433318,236.047059 95.3755243,255.762071 C94.3071692,275.476535 160.023327,375.145686 192.881133,389.384214 C196.166694,389.384214 290.356624,333.023692 300.763092,294.393155 C311.169561,255.762071 282.7845,232.653074 282.7845,232.653074 L115.857167,226.303179 Z" id="Fill-2" fill="#272F32"></path>
                <polygon id="Fill-4" fill="#FFE9BA" points="250.294568 417.190359 164.199714 417.190359 164.199714 316.700913 164.199714 242.701854 250.294568 242.701854"></polygon>
                <path d="M165.355301,324.575637 C77.625333,362.111535 65.2590272,373.500933 54.8574871,382.489682 C38.8261373,396.331205 28.7761523,456.661781 28.7761523,503.012839 L376.907677,502.926867 C378.465034,455.520596 364.015134,393.529169 347.98488,379.688193 C337.586077,370.698897 333.410129,362.627915 245.676875,325.085994 L165.355301,324.575637 Z" id="Fill-6" fill="#FFE9BA"></path>
                <path d="M164.199933,272.932579 C164.199933,272.932579 211.024113,313.115544 223.286376,315.775206 C235.548639,318.43432 250.294787,315.451031 250.294787,305.70715 C250.294787,295.962723 250.341332,258.596032 250.341332,258.596032 L164.199933,260.305619 L164.199933,272.932579 Z" id="Fill-8" fill="#D3BD98"></path>
                <path d="M304.91199,155.233143 C299.704375,232.230824 269.500756,280.004531 202.845474,292.202178 C138.272691,280.513246 109.631357,232.738991 100.778959,155.233143 C92.1915961,80.0529249 146.475096,18.2641078 202.845474,18.2641078 C259.215305,18.2641078 310.016657,79.7512009 304.91199,155.233143" id="Fill-10" fill="#FFE9BA"></path>
                <path d="M294.021832,172.475387 C291.758628,190.747489 289.693652,205.954163 298.71909,207.042231 C307.744527,208.130847 316.93479,194.205543 319.247278,175.939464 C321.559766,157.673384 316.038379,142.490257 307.092343,140.895665 C298.128784,139.297787 298.084976,139.676174 294.021832,172.475387" id="Fill-12" fill="#FFE9BA"></path>
                <path d="M112.295947,170.930187 C114.608435,189.196266 115.994942,205.954273 106.969504,207.042341 C97.9446143,208.130957 88.7538036,194.205105 86.4413159,175.939573 C84.1288282,157.673494 89.5708133,141.983843 98.5962507,140.895774 C107.621141,139.807706 109.983459,152.664108 112.295947,170.930187" id="Fill-14" fill="#FFE9BA"></path>
                <path d="M295.196749,42.1970139 C285.716261,32.7335016 273.68782,29.3526588 273.68782,29.3526588 C273.68782,29.3526588 247.118032,15.1267251 226.868021,4.98419679 C206.619106,-5.16654545 173.712565,2.95371979 156.636954,7.70135615 C139.548201,12.4331123 114.151358,37.1022032 107.815701,51.3122567 C101.509613,65.538738 90.8271572,97.6961711 85.7646545,120.02649 C80.7016043,142.357356 97.7175273,164.009206 108.324963,168.63911 C115.23176,171.637185 115.67093,188.986593 115.67093,188.986593 L123.220056,192.562926 C123.220056,192.562926 118.566605,180.452894 119.254383,168.201583 C119.708886,160.065985 118.465301,135.588004 118.465301,135.588004 C118.465301,135.588004 150.932124,128.685587 174.854297,121.767837 C166.762507,132.332013 160.134434,139.523012 160.134434,139.523012 C174.121617,134.447914 185.285407,125.937215 194.138901,116.427157 C182.09677,134.893108 168.284817,149.876364 168.284817,149.876364 C187.334503,142.942734 201.160693,129.693159 210.964261,116.153908 C198.10293,139.461134 178.204475,161.041797 178.204475,161.041797 C223.299354,144.62987 239.246374,92.8707765 241.324492,85.4607401 C241.456462,85.3435551 241.573099,85.2187037 241.70507,85.1015187 C247.440565,86.530738 256.935837,90.1612834 268.714028,99.5076107 C280.681686,109.017121 295.415239,122.165938 295.415239,150.626019 C295.415239,160.136077 291.421091,187.822956 291.421091,187.822956 L295.415239,184.801882 C295.415239,184.801882 295.415239,174.073429 306.755902,167.358289 C315.812552,161.986943 318.109707,143.747149 318.109707,136.212261 C318.109707,85.796415 304.692569,51.6835251 295.196749,42.1970139" id="Fill-16" fill="#603813"></path>
                <path d="M343.654455,381.695945 C334.823413,374.062491 330.468401,367.177597 275.626904,342.256065 C264.078155,361.529169 237.017723,375.100181 205.47688,375.100181 C172.040269,375.100181 143.659588,359.916506 133.434921,338.782679 C70.4638494,366.885182 59.7211585,376.539804 50.5270622,384.486482 C34.4951649,398.327458 23.8455649,457.051941 23.8455649,503.053635 L372.644059,503.073348 C374.201415,455.976467 359.684162,395.536921 343.654455,381.695945" id="Fill-18" fill="#24292C"></path>
                <path d="M269.823452,334.34728 L372.38335,385.623944 C372.38335,385.623944 376.885664,383.907785 380.536471,389.019024 C382.479333,391.738921 398.425805,502.931084 398.425805,502.931084 L232.631991,503.012675 L269.823452,334.34728 Z" id="Fill-20" fill="#765536"></path>
                <path d="M133.434976,338.782843 L35.284302,383.433624 C35.284302,383.433624 30.7819876,381.717466 27.1311812,386.828704 C25.1883191,389.548601 0.114556578,503.072965 0.114556578,503.072965 L175.357098,502.926758 L133.434976,338.782843 Z" id="Fill-22" fill="#765536"></path>
                <polygon id="Fill-24" fill="#8A6231" points="148.836538 370.813618 139.012162 336.328912 127.736662 341.604976 82.6242601 386.463843 157.648962 414.39002"></polygon>
                <path d="M148.836538,373.004266 L175.357043,502.926867 L135.430352,502.401725 C135.430352,502.401725 93.9419243,428.036874 79.7033959,406.908523 L148.836538,373.004266 Z" id="Fill-26" fill="#957141"></path>
                <polygon id="Fill-28" fill="#8A6231" points="254.084682 370.813618 265.716117 331.883 278.69518 338.782679 320.29696 386.463843 245.272258 414.39002"></polygon>
                <path d="M123.53525,397.023254 L130.177561,502.964542 L192.312457,503.01273 C192.312457,503.01273 170.904286,399.018137 158.064311,375.359357 C145.22379,351.701123 123.53525,397.023254 123.53525,397.023254" id="Fill-30" fill="#5D5D5D"></path>
                <path d="M254.084682,370.813618 L227.564177,502.926593 L266.720404,502.953973 C266.720404,502.953973 308.979296,425.846225 323.217824,404.717875 L254.084682,370.813618 Z" id="Fill-32" fill="#957141"></path>
                <path d="M115.857167,226.303179 C115.857167,226.303179 103.376414,254.79064 121.231798,298.112411 C139.087182,341.433634 204.035614,379.161737 204.035614,379.161737 C204.035614,379.161737 275.025646,332.13659 283.879687,289.839367 C288.66894,263.793626 285.431019,234.769523 285.431019,234.769523 C285.431019,234.769523 315.93253,258.635842 320.092598,267.44498 C326.299024,280.587773 323.217715,316.366443 323.217715,316.366443 C323.217715,316.366443 326.378972,352.920505 320.29685,360.907157 C310.492187,373.782725 287.573753,398.644021 287.573753,398.644021 C270.049663,411.05742 253.120808,439.014263 227.564615,441.204637 C202.008423,443.395559 174.443109,442.226447 157.648962,436.385266 C140.854814,430.543538 83.2183991,378.116928 73.4975179,366.049609 C62.9097959,352.906267 64.7349253,296.51508 74.592705,294.393155 C84.4499371,292.270682 95.8174323,245.660612 100.603948,239.088941 C105.390463,232.517271 115.857167,226.303179 115.857167,226.303179" id="Fill-34" fill="#384142"></path>
                <path d="M115.857167,226.303179 C115.857167,226.303179 152.029556,350.266866 202.939879,368.521446 C219.532513,363.40966 262.97804,324.765433 269.54971,307.787842 C276.121381,290.81025 287.348145,259.122105 285.431019,234.769523 C285.431019,234.769523 310.439618,258.682387 308.248696,280.587773 C306.058322,302.493159 236.203999,393.97031 210.405223,396.685827 C168.785372,401.067123 143.514476,364.266644 120.136611,349.16237 C98.2312248,335.009814 96.5128761,271.928128 95.9499499,253.754045 C95.362382,234.769523 115.857167,226.303179 115.857167,226.303179" id="Fill-36" fill="#455052"></path>
            </g>
        </g>
    </g>
</svg>