<?xml version="1.0" encoding="UTF-8"?>
<svg width="512px" height="512px" viewBox="0 0 512 512" version="1.1" xmlns="http://www.w3.org/2000/svg" xmlns:xlink="http://www.w3.org/1999/xlink">
    <!-- Generator: Sketch 56.3 (81716) - https://sketch.com -->
    <title>6</title>
    <desc>Created with Sketch.</desc>
    <g id="6" stroke="none" stroke-width="1" fill="none" fill-rule="evenodd">
        <g id="Group-69">
            <polygon id="Fill-1" fill="#007EA7" points="0 510.908243 511.361117 510.908243 511.361117 0.54642476 0 0.54642476"></polygon>
            <g id="Group-68" transform="translate(90.176125, 11.001093)">
                <path d="M319.254569,382.474787 C309.03176,377.457515 249.039548,349.018292 222.083129,336.248345 L222.083129,275.269527 L122.626449,275.269527 L122.626449,336.248345 C95.6700299,349.018292 35.6778181,377.457515 25.4550086,382.474787 C12.1947019,388.983252 1.98229472,499.153959 1.98229472,499.153959 L342.727283,499.153959 C342.727283,499.153959 332.514876,388.983252 319.254569,382.474787" id="Fill-2" fill="#E8BAA2"></path>
                <path d="M138.398713,290.429427 C138.398713,290.429427 183.903684,327.267745 195.820988,329.705892 C207.737744,332.144039 222.067854,329.408637 222.067854,320.475685 C222.067854,311.542733 222.113843,277.285726 222.113843,277.285726 L138.398713,278.853418 L138.398713,290.429427 Z" id="Fill-4" fill="#C69279"></path>
                <path d="M268.11572,167.528936 C267.489387,167.419104 266.916708,167.322934 266.380164,167.245888 C264.65501,105.367655 220.742699,56.956607 172.35791,56.956607 C123.923845,56.956607 77.1700406,105.704799 77.7870664,167.483582 C77.404368,167.471015 77.0107198,167.480304 76.5984567,167.528936 C68.3083013,168.510315 63.3096803,182.656705 65.4339574,199.126494 C67.5576869,215.596283 76.0000457,228.152031 84.2902011,227.170652 C85.6698862,227.007817 86.7791092,226.445546 87.6693346,225.558152 C101.085677,268.922421 127.110808,295.916351 172.35791,303.955898 C218.618422,295.646417 245.753324,269.013128 258.323788,226.55046 C258.937529,226.86684 259.633942,227.07776 260.423975,227.170652 C268.714131,228.152031 277.15649,215.596283 279.280767,199.126494 C281.403949,182.656705 276.333059,168.966579 268.11572,167.528936" id="Fill-6" fill="#E8BAA2"></path>
                <path d="M296.048649,146.63327 C295.579447,140.853189 294.782295,135.067098 293.799543,129.367341 C292.75602,123.697091 291.482548,118.142137 290.034427,112.80466 C289.713595,111.633672 289.353891,110.522244 289.017183,109.373659 C289.057697,108.760024 289.093832,108.15076 289.140369,107.537672 C291.325965,79.0612918 270.52995,49.1374327 252.798259,39.6979449 C251.671516,38.3045618 250.515209,36.9286642 249.310722,35.5833665 L249.24776,36.4756781 C249.183703,36.4046429 249.126216,36.3303291 249.063254,36.2576546 L248.99208,37.2171765 L245.71478,29.9557379 C236.810337,16.7787048 222.843763,4.62403244 206.715682,0.66190651 C210.377322,3.45686916 213.242906,6.83595987 215.432883,10.5991872 C198.684491,3.71368879 179.276921,1.92032273 158.111894,1.55039317 C162.853193,1.97223308 168.502785,3.92898015 174.377944,6.65181473 C168.253127,6.75017118 161.678271,7.2184572 154.395505,8.18180406 C115.897363,13.2591829 79.8536376,36.8100901 67.1594397,70.9824017 C70.0879856,64.9771936 76.2943785,62.6991488 82.6858245,59.5970954 C81.2727422,62.0412534 79.9133144,64.6263889 78.6184909,67.3678019 C67.2596311,81.6223846 52.3031877,108.03 57.9938413,143.78913 C57.9062422,144.468336 57.8093358,145.144263 57.7310441,145.822923 C57.0828111,151.591529 56.7274874,157.341556 56.6678106,162.9211 C56.6678106,168.492447 56.8506736,173.88238 57.4052851,178.922602 C57.6270202,181.450363 58.0173835,183.873757 58.3272652,186.222837 C58.7608805,188.535307 59.123869,190.776195 59.5821216,192.889219 C60.470157,197.121279 61.5109433,200.871939 62.5374947,204.109505 C63.0740389,205.714901 63.5405038,207.229591 64.0365335,208.590188 C64.5665077,209.919093 65.0493975,211.145817 65.4890353,212.249595 C66.3157513,214.480101 67.1944793,216.052165 67.6866765,217.1931 C68.2221257,218.300703 68.5057277,218.893574 68.5057277,218.893574 C68.5057277,218.893574 68.3453119,218.211635 68.0436427,216.925898 C67.7567558,215.639614 67.2432063,213.81838 66.7526516,211.41739 C66.4986144,210.231102 66.2188449,208.919136 65.9111532,207.484225 C65.6467136,206.04221 65.3620166,204.488178 65.0570624,202.819396 C64.4849311,199.479648 63.9620743,195.694018 63.4890394,191.575614 C63.3417635,190.270752 63.2339071,188.91234 63.1271458,187.533164 C67.0362536,212.446308 76.1963771,233.027396 91.8662053,241.766914 C91.6034081,241.2571 91.3433484,240.770235 91.0723388,240.287196 C90.5013025,239.313467 90.1103917,238.157232 89.6483067,237.166564 C89.2015516,236.133275 88.7843611,235.15736 88.464077,234.168878 C88.1136808,233.17657 87.7917543,232.26568 87.4993924,231.410526 C87.1922483,230.582146 86.9946029,229.751034 86.7734153,229.045053 C86.5757699,228.333061 86.3967394,227.705219 86.244536,227.199776 C85.9910462,226.307465 85.8229656,225.757215 85.7977808,225.637001 C85.8492453,225.757215 86.0895952,226.247904 86.4492988,227.035849 C86.6726764,227.500856 86.9256186,228.05056 87.2201705,228.678948 C87.5273146,229.284933 87.8344588,230.035721 88.2516493,230.76793 C88.6463926,231.492489 89.0767229,232.282619 89.5366179,233.113185 C89.9685908,233.96834 90.5160849,234.776502 91.0597465,235.605428 C91.6181904,236.414137 92.12298,237.346884 92.7772354,238.099857 C93.3931663,238.867038 94.0205945,239.658807 94.6502127,240.445112 C95.3340328,241.116122 96.0151154,241.803524 96.6868907,242.476173 C97.3170564,243.182701 98.0693132,243.632408 98.7263061,244.197411 C99.0465902,244.438931 99.3537344,244.680997 99.6444537,244.903392 C97.8081586,243.397992 87.8569061,216.672903 88.7416565,179.865185 C92.4377891,174.157778 97.2217924,168.935051 102.370427,164.356011 C100.784336,167.589753 99.4468084,170.983051 98.3145906,174.49984 C96.8588038,178.855939 95.7227536,183.40711 94.8883726,188.126035 C102.617894,170.299473 137.587436,157.919674 161.728093,146.904297 C151.82721,155.212139 140.527479,160.605352 128.548856,166.08927 C129.429227,165.87234 130.336425,165.637924 131.241432,165.404054 C130.26306,165.857586 129.289616,166.310572 128.300842,166.764651 C150.495704,161.270897 181.117048,150.879537 204.447414,135.771985 C197.738969,144.937714 189.924586,152.217731 181.19534,160.969817 C181.489344,160.824468 181.779516,160.662726 182.074068,160.514099 C181.698487,160.891678 181.327286,161.255597 180.945683,161.638641 C189.932251,157.233911 198.541048,151.007947 205.70665,144.094581 C199.984242,153.346099 193.016285,165.08057 183.76473,171.330577 C184.578306,170.883055 185.390787,170.429522 186.200531,169.972165 C185.325635,170.693445 184.43541,171.384673 183.51562,172.005411 C204.112347,160.672015 223.300373,146.350222 234.294601,126.297527 C234.728217,140.646641 230.192228,148.810773 222.775326,157.252489 C222.780801,157.542641 243.130608,145.72238 253.483721,116.454777 C277.084549,182.706594 253.640305,242.048869 250.783481,244.238393 C251.083507,244.022555 251.397769,243.79415 251.725718,243.561919 C252.403516,243.01932 253.171102,242.595294 253.82262,241.909531 C254.519033,241.26475 255.22311,240.599204 255.93102,239.950598 C256.58418,239.184511 257.237888,238.413505 257.882289,237.670368 C258.559539,236.938158 259.096083,236.025629 259.680807,235.235499 C260.254581,234.425697 260.828355,233.633381 261.289892,232.797352 C261.777709,231.981539 262.235962,231.206163 262.653152,230.492532 C263.096075,229.777262 263.427309,229.039588 263.755258,228.442893 C264.072257,227.823793 264.342172,227.285019 264.581974,226.827661 C264.96741,226.050645 265.224185,225.571431 265.282766,225.450671 C265.250464,225.571431 265.064316,226.11403 264.779619,226.998692 C264.612086,227.496485 264.408966,228.121048 264.191063,228.823751 C263.945238,229.524267 263.718028,230.34609 263.382962,231.165727 C263.062678,232.009407 262.708449,232.908822 262.325203,233.886376 C261.971522,234.867755 261.522577,235.82673 261.040235,236.841441 C260.544753,237.818995 260.11278,238.95993 259.509989,239.911802 C259.222554,240.387191 258.944975,240.863127 258.6663,241.364745 C290.093556,218.494137 288.164734,180.688101 288.187181,139.324839 C288.618607,142.280451 289.006233,145.235516 289.330349,148.179653 C289.847731,153.524233 290.209077,158.806521 290.335548,163.958214 C290.395225,169.098978 290.380443,174.107507 290.040996,178.831896 C289.953397,181.215947 289.653918,183.49126 289.50719,185.735973 C289.24056,187.9479 289.039082,190.118846 288.734676,192.166846 C288.123125,196.266671 287.471607,200.032084 286.786692,203.351068 C286.423156,205.006735 286.086447,206.551477 285.77328,207.984203 C285.417409,209.406 285.093292,210.710863 284.797646,211.887315 C284.227704,214.269727 283.650098,216.072929 283.318864,217.345552 C282.97668,218.620361 282.789985,219.296835 282.789985,219.296835 C282.789985,219.296835 283.095487,218.717078 283.66926,217.628054 C284.197592,216.501872 285.129427,214.960955 286.033887,212.758863 C286.508565,211.671477 287.031969,210.461693 287.609575,209.153552 C288.149404,207.811533 288.670619,206.313236 289.259722,204.726419 C290.395225,201.522184 291.564672,197.808681 292.596151,193.612686 C293.125031,191.516054 293.564668,189.286094 294.078218,186.992203 C294.465296,184.654598 294.941069,182.245958 295.248213,179.729672 C295.97419,174.711307 296.339368,169.327384 296.529349,163.75713 C296.659105,158.181411 296.499237,152.423734 296.048649,146.63327" id="Fill-8" fill="#4C3128"></path>
                <path d="M181.060985,161.101505 C181.10588,161.056698 181.150774,161.014077 181.195121,160.969817 C181.150774,160.991674 181.10588,161.016263 181.060985,161.036481 C181.038538,161.062163 179.759592,161.753936 181.060985,161.101505" id="Fill-10" fill="#2B2B2B"></path>
                <path d="M99.6281931,454.260301 C99.6281931,454.260301 131.138668,478.028139 169.429856,478.028139 C207.721593,478.028139 235.947103,459.177578 235.947103,459.177578 L249.086413,498.518521 L79.09826,498.518521 L99.6281931,454.260301 Z" id="Fill-12" fill="#F2F2F2"></path>
                <path d="M24.7755137,382.839252 C24.7755137,382.839252 12.1377077,400.919355 7.55791973,429.333442 C2.97813171,457.74753 0.230258903,499.517877 0.230258903,499.517877 L49.924107,499.517877 C49.924107,499.517877 54.5044425,439.169088 52.2137272,420.590646 C49.924107,402.012204 24.7755137,382.839252 24.7755137,382.839252" id="Fill-14" fill="#6D8FB4"></path>
                <path d="M85.9130283,353.926771 L24.5936909,382.839197 C24.5936909,382.839197 36.7195899,414.033494 38.931466,440.261883 C41.1438896,466.490271 38.931466,499.275757 38.931466,499.275757 L142.904425,499.275757 L165.025924,392.176504 L139.585516,384.526557 L85.9130283,353.926771 Z" id="Fill-16" fill="#759ABC"></path>
                <polygon id="Fill-18" fill="#AAC5E0" points="152.159813 386.712256 165.025924 392.176504 143.12616 499.275757 126.336159 499.275757"></polygon>
                <path d="M152.750613,391.928919 C152.711194,391.928919 152.670679,391.924547 152.630712,391.915804 C152.335613,391.849687 152.149465,391.557896 152.215712,391.263373 L152.811933,388.59682 C152.877632,388.302298 153.173826,388.119792 153.465641,388.183177 C153.76074,388.248748 153.946888,388.540539 153.880094,388.835062 L153.28442,391.501615 C153.227481,391.756248 153.001366,391.928919 152.750613,391.928919 M151.558171,397.262024 C151.518752,397.262024 151.478785,397.257653 151.438818,397.248364 C151.143171,397.182793 150.95757,396.891002 151.023817,396.596479 L151.620038,393.929926 C151.685737,393.635403 151.981932,393.452897 152.273199,393.515736 C152.568298,393.581307 152.754446,393.873644 152.688199,394.168167 L152.091978,396.83472 C152.034491,397.088808 151.808924,397.262024 151.558171,397.262024 M150.366277,402.595676 C150.32631,402.595676 150.286343,402.591305 150.246375,402.582016 C149.951276,402.516445 149.765128,402.224654 149.831375,401.930131 L150.427596,399.263032 C150.493295,398.968509 150.788942,398.786003 151.080756,398.848842 C151.375856,398.914413 151.562004,399.206204 151.495757,399.500727 L150.899536,402.167826 C150.843144,402.42246 150.617029,402.595676 150.366277,402.595676 M149.173835,407.928236 C149.134415,407.928236 149.0939,407.923864 149.053933,407.915121 C148.758834,407.84955 148.572686,407.55776 148.638933,407.26269 L149.235154,404.596684 C149.300853,404.302161 149.595952,404.119109 149.888314,404.182494 C150.183961,404.248065 150.369562,404.539856 150.303315,404.834379 L149.707094,407.500931 C149.650702,407.755565 149.424587,407.928236 149.173835,407.928236 M147.980845,413.261341 C147.941425,413.261341 147.901458,413.25697 147.860944,413.248227 C147.565844,413.182656 147.379696,412.890319 147.446491,412.595796 L148.042712,409.929243 C148.108411,409.63472 148.404058,409.451668 148.69642,409.5156 C148.991519,409.581171 149.177667,409.872961 149.11142,410.167484 L148.514652,412.834037 C148.457712,413.088671 148.231597,413.261341 147.980845,413.261341 M146.788403,418.594447 C146.748983,418.594447 146.709016,418.590076 146.669049,418.580786 C146.37395,418.515215 146.187802,418.223425 146.254049,417.928902 L146.85027,415.262349 C146.915969,414.967826 147.211068,414.784774 147.50343,414.848159 C147.798529,414.91373 147.984677,415.206067 147.918431,415.50059 L147.32221,418.167143 C147.26527,418.42123 147.038608,418.594447 146.788403,418.594447 M145.596508,423.927553 C145.556541,423.927553 145.516574,423.923181 145.476607,423.913892 C145.181508,423.848321 144.99536,423.55653 145.061606,423.262007 L145.657828,420.595454 C145.723527,420.300931 146.018079,420.117879 146.310988,420.181264 C146.606087,420.246835 146.792235,420.538626 146.725988,420.833149 L146.129767,423.499702 C146.073376,423.754336 145.84726,423.927553 145.596508,423.927553 M144.404066,429.260658 C144.364647,429.260658 144.324132,429.256833 144.284165,429.247544 C143.989066,429.181973 143.802918,428.890182 143.869164,428.595659 L144.465385,425.92856 C144.531632,425.634037 144.825089,425.451531 145.119093,425.51437 C145.414193,425.579941 145.599793,425.871732 145.532999,426.166255 L144.937325,428.833354 C144.880933,429.087988 144.654818,429.260658 144.404066,429.260658 M143.211624,434.593764 C143.172204,434.593764 143.132237,434.589393 143.091723,434.58065 C142.796623,434.515079 142.610475,434.222742 142.67727,433.928219 L143.272943,431.261666 C143.339738,430.967143 143.633194,430.784091 143.926651,430.848022 C144.221751,430.913593 144.407899,431.205384 144.341652,431.499907 L143.745431,434.16646 C143.688491,434.421094 143.462376,434.593764 143.211624,434.593764 M142.019182,439.92687 C141.979762,439.92687 141.939795,439.922498 141.899828,439.913209 C141.604729,439.847638 141.418581,439.555847 141.484828,439.261324 L142.081049,436.594771 C142.147295,436.300248 142.440205,436.117196 142.734209,436.180581 C143.029308,436.246152 143.215456,436.53849 143.14921,436.833013 L142.552989,439.499565 C142.496597,439.753653 142.269934,439.92687 142.019182,439.92687 M140.827287,445.259975 C140.78732,445.259975 140.747353,445.255604 140.707386,445.246315 C140.412287,445.180744 140.226139,444.888953 140.292386,444.59443 L140.888607,441.927877 C140.954306,441.633354 141.251595,441.450302 141.541767,441.513687 C141.836866,441.579258 142.023014,441.871049 141.956768,442.166118 L141.360546,444.832125 C141.304155,445.086759 141.07804,445.259975 140.827287,445.259975 M139.634845,450.592534 C139.595426,450.592534 139.554911,450.588709 139.514944,450.57942 C139.219845,450.513849 139.033697,450.222058 139.099943,449.927536 L139.696164,447.260983 C139.761864,446.96646 140.058058,446.783407 140.349872,446.846793 C140.644972,446.912364 140.83112,447.204155 140.764325,447.498677 L140.168652,450.16523 C140.111712,450.419864 139.885597,450.592534 139.634845,450.592534 M138.442403,455.926187 C138.402983,455.926187 138.363016,455.921815 138.322502,455.913072 C138.027402,455.847501 137.841802,455.555164 137.908049,455.260641 L138.50427,452.594088 C138.569969,452.299565 138.866163,452.115967 139.15743,452.180445 C139.45253,452.246016 139.638678,452.537807 139.572431,452.83233 L138.97621,455.498882 C138.91927,455.753516 138.693155,455.926187 138.442403,455.926187 M137.249961,461.259292 C137.209994,461.259292 137.170027,461.254921 137.13006,461.245632 C136.83496,461.180061 136.648812,460.88827 136.715059,460.593747 L137.31128,457.927194 C137.37698,457.632671 137.673721,457.449072 137.964441,457.513004 C138.25954,457.579121 138.445688,457.870912 138.379441,458.165435 L137.78322,460.831988 C137.726828,461.086076 137.500713,461.259292 137.249961,461.259292 M136.057519,466.592398 C136.018099,466.592398 135.977585,466.588026 135.937618,466.578737 C135.642518,466.513166 135.45637,466.221375 135.522617,465.926853 L136.118838,463.2603 C136.184537,462.965777 136.480732,462.782724 136.771999,462.84611 C137.067098,462.911681 137.253246,463.203472 137.186999,463.498541 L136.590778,466.164547 C136.533839,466.419181 136.308271,466.592398 136.057519,466.592398 M134.865077,471.924957 C134.825657,471.924957 134.78569,471.921132 134.745175,471.911843 C134.450076,471.846272 134.263928,471.554481 134.330175,471.259958 L134.926396,468.593405 C134.992095,468.298882 135.287742,468.11583 135.580104,468.179215 C135.875203,468.244786 136.061351,468.536577 135.995104,468.8311 L135.398883,471.497653 C135.341944,471.752287 135.115829,471.924957 134.865077,471.924957 M133.672635,477.258063 C133.633215,477.258063 133.593248,477.253691 133.553281,477.244949 C133.257634,477.179378 133.072034,476.88704 133.13828,476.592517 L133.734501,473.926511 C133.800201,473.631442 134.0953,473.448389 134.387662,473.512321 C134.682761,473.577892 134.868909,473.869683 134.802662,474.164206 L134.206441,476.830759 C134.149502,477.085393 133.923387,477.258063 133.672635,477.258063 M132.48074,482.591715 C132.440773,482.591715 132.400806,482.587343 132.360839,482.578601 C132.065739,482.512483 131.879591,482.220692 131.945838,481.926169 L132.542059,479.259617 C132.607759,478.965094 132.902858,478.781495 133.19522,478.845427 C133.490319,478.911544 133.676467,479.203335 133.61022,479.497858 L133.013999,482.164411 C132.957607,482.419045 132.731492,482.591715 132.48074,482.591715 M131.288298,487.92482 C131.248878,487.92482 131.208364,487.920449 131.168397,487.91116 C130.873297,487.845589 130.687149,487.553798 130.753396,487.259275 L131.349617,484.592722 C131.415316,484.298199 131.709868,484.114601 132.002778,484.178532 C132.298424,484.244103 132.484025,484.536441 132.417778,484.830964 L131.821557,487.49697 C131.765165,487.751604 131.53905,487.92482 131.288298,487.92482 M130.095856,493.25738 C130.056436,493.25738 130.016469,493.253555 129.975954,493.244266 C129.680855,493.178695 129.494707,492.886904 129.561501,492.592381 L130.157175,489.925828 C130.223422,489.631305 130.517426,489.447706 130.810883,489.511638 C131.105982,489.577209 131.29213,489.869 131.225883,490.163523 L130.629662,492.830076 C130.572723,493.084709 130.346608,493.25738 130.095856,493.25738 M128.902866,498.590485 C128.863994,498.590485 128.824027,498.586114 128.78406,498.577371 C128.488961,498.5118 128.302813,498.220009 128.369059,497.92494 L128.96528,495.258934 C129.031527,494.963864 129.324984,494.780812 129.618441,494.844744 C129.91354,494.910315 130.099688,495.202105 130.033441,495.496628 L129.43722,498.163181 C129.380281,498.417815 129.154166,498.590485 128.902866,498.590485" id="Fill-20" fill="#0071BC"></path>
                <path d="M162.454727,395.223969 C162.41695,395.223969 162.378078,395.220144 162.339753,395.211948 C162.050676,395.148563 161.867813,394.863329 161.930775,394.575363 L162.504002,391.962906 C162.567511,391.674394 162.85385,391.491888 163.141832,391.554727 C163.430909,391.617566 163.613772,391.903346 163.55081,392.191312 L162.977584,394.803222 C162.922287,395.053485 162.701099,395.223969 162.454727,395.223969 M161.307727,400.44779 C161.270497,400.44779 161.232173,400.443965 161.193301,400.435222 C160.904224,400.372383 160.721361,400.086603 160.784323,399.798637 L161.357549,397.186727 C161.421058,396.897668 161.707945,396.71407 161.99538,396.778548 C162.284456,396.841387 162.467319,397.12662 162.404358,397.415133 L161.831131,400.027043 C161.776382,400.277305 161.554647,400.44779 161.307727,400.44779 M160.162369,405.671064 C160.124045,405.671064 160.08572,405.667239 160.047396,405.659043 C159.757771,405.595658 159.574908,405.310424 159.63787,405.022458 L160.211096,402.410001 C160.275701,402.121489 160.56204,401.93953 160.848927,402.001822 C161.138551,402.065207 161.321414,402.350441 161.257905,402.638407 L160.685226,405.250864 C160.629929,405.501126 160.408742,405.671064 160.162369,405.671064 M159.015369,410.894885 C158.977592,410.894885 158.939268,410.89106 158.900943,410.882317 C158.611319,410.818932 158.428456,410.534245 158.491965,410.245732 L159.065191,407.634368 C159.129248,407.345856 159.416135,407.161711 159.703022,407.226189 C159.992099,407.289574 160.174962,407.574808 160.112,407.862774 L159.538774,410.474138 C159.483477,410.7244 159.262289,410.894885 159.015369,410.894885 M157.869464,416.118706 C157.831687,416.118706 157.792815,416.114881 157.75449,416.106684 C157.465413,416.043845 157.28255,415.758065 157.345512,415.470099 L157.918739,412.857643 C157.982248,412.56913 158.27023,412.387717 158.556569,412.449463 C158.845646,412.512849 159.028509,412.798082 158.965547,413.086048 L158.392321,415.698505 C158.337024,415.948768 158.115836,416.118706 157.869464,416.118706 M156.722464,421.342526 C156.685234,421.342526 156.64691,421.338701 156.608038,421.329959 C156.318961,421.26712 156.136098,420.981886 156.19906,420.693374 L156.772286,418.081463 C156.835795,417.792951 157.124872,417.609352 157.410117,417.673284 C157.699193,417.736123 157.882056,418.021903 157.819095,418.309869 L157.245868,420.921779 C157.191119,421.172042 156.969384,421.342526 156.722464,421.342526 M155.576559,426.565801 C155.538782,426.565801 155.500457,426.562522 155.462133,426.553779 C155.172508,426.49094 154.989645,426.20516 155.052607,425.917194 L155.625833,423.305284 C155.68989,423.015679 155.974587,422.835359 156.263664,422.897105 C156.553288,422.959944 156.736151,423.245177 156.672642,423.53369 L156.099963,426.1456 C156.044666,426.395863 155.823479,426.565801 155.576559,426.565801 M154.431201,431.789621 C154.392877,431.789621 154.354552,431.785796 154.316227,431.7776 C154.026603,431.714215 153.84374,431.428981 153.907249,431.140469 L154.479928,428.529105 C154.543438,428.240593 154.828682,428.056994 155.117759,428.120926 C155.406836,428.183764 155.589699,428.469545 155.526737,428.75751 L154.954058,431.368874 C154.898761,431.619137 154.677574,431.789621 154.431201,431.789621 M153.284749,437.013988 C153.246972,437.013988 153.208099,437.010164 153.169775,437.001421 C152.880698,436.938582 152.697835,436.652802 152.760797,436.364836 L153.334023,433.752926 C153.397532,433.46332 153.683324,433.283 153.971854,433.344746 C154.260931,433.407585 154.443794,433.692819 154.380832,433.981331 L153.807605,436.593241 C153.752309,436.843504 153.531121,437.013988 153.284749,437.013988 M152.138296,442.237263 C152.100519,442.237263 152.062194,442.233438 152.023322,442.225241 C151.734245,442.161856 151.551382,441.876622 151.614344,441.588657 L152.18757,438.9762 C152.25108,438.687688 152.537419,438.505182 152.825401,438.56802 C153.114478,438.630859 153.297341,438.916639 153.234379,439.204605 L152.661153,441.817062 C152.606403,442.067325 152.384668,442.237263 152.138296,442.237263 M150.991843,447.461083 C150.954066,447.461083 150.915742,447.457258 150.877417,447.448516 C150.587793,447.385677 150.40493,447.100443 150.467892,446.811931 L151.041118,444.20002 C151.105722,443.911508 151.391514,443.726817 151.678948,443.791841 C151.968573,443.85468 152.151436,444.14046 152.087927,444.428426 L151.515248,447.040336 C151.459951,447.290599 151.238763,447.461083 150.991843,447.461083 M149.845938,452.684358 C149.807614,452.684358 149.769289,452.680533 149.730965,452.672336 C149.44134,452.609498 149.258477,452.323717 149.321986,452.035752 L149.895213,449.423841 C149.95927,449.135329 150.245609,448.952823 150.533043,449.015662 C150.82212,449.079594 151.004983,449.364281 150.942021,449.652247 L150.368795,452.264157 C150.313498,452.51442 150.092311,452.684358 149.845938,452.684358 M148.699486,457.908178 C148.661709,457.908178 148.622837,457.904353 148.584512,457.895611 C148.295435,457.832225 148.112572,457.547538 148.175534,457.259026 L148.74876,454.647662 C148.812269,454.35915 149.099704,454.174458 149.386591,454.239483 C149.675668,454.302321 149.858531,454.588102 149.795569,454.876067 L149.222343,457.487431 C149.167046,457.737694 148.945858,457.908178 148.699486,457.908178 M147.553033,463.131999 C147.515256,463.131999 147.476931,463.128721 147.438059,463.119978 C147.148982,463.057139 146.966119,462.771359 147.029081,462.483393 L147.602308,459.871483 C147.665817,459.582424 147.954346,459.400464 148.240138,459.463303 C148.529215,459.526142 148.712078,459.811376 148.649116,460.099888 L148.07589,462.711799 C148.021141,462.962061 147.799405,463.131999 147.553033,463.131999 M146.40658,468.35582 C146.368803,468.35582 146.330479,468.351995 146.292154,468.343252 C146.00253,468.280413 145.819667,467.99518 145.882629,467.706667 L146.455855,465.094757 C146.519912,464.806245 146.804609,464.622646 147.093686,464.686578 C147.38331,464.749416 147.566173,465.035197 147.502664,465.323162 L146.929985,467.935073 C146.874688,468.185335 146.6535,468.35582 146.40658,468.35582 M145.260675,473.579094 C145.222351,473.579094 145.184026,473.575816 145.145702,473.567073 C144.856077,473.503688 144.673214,473.218454 144.736723,472.930488 L145.30995,470.319124 C145.373459,470.030065 145.658704,469.848106 145.94778,469.910945 C146.236857,469.973784 146.41972,470.259017 146.356758,470.54753 L145.783532,473.158893 C145.728235,473.409156 145.507048,473.579094 145.260675,473.579094 M144.114223,478.802915 C144.076446,478.802915 144.037574,478.79909 143.999249,478.790893 C143.710172,478.726962 143.527309,478.442274 143.590271,478.154309 L144.163497,475.542398 C144.227006,475.253886 144.512798,475.070287 144.801328,475.134219 C145.090405,475.197604 145.273268,475.482838 145.210306,475.770804 L144.63708,478.382714 C144.581783,478.632977 144.360595,478.802915 144.114223,478.802915 M142.96777,484.027282 C142.929993,484.027282 142.891668,484.023457 142.852796,484.014714 C142.563719,483.951875 142.380856,483.666095 142.443818,483.378129 L143.017045,480.766219 C143.080554,480.477707 143.367441,480.295747 143.654875,480.35804 C143.943952,480.420879 144.126815,480.706112 144.063853,480.994625 L143.490627,483.606535 C143.435878,483.856797 143.214142,484.027282 142.96777,484.027282 M141.821317,489.250556 C141.78354,489.250556 141.745216,489.246731 141.706891,489.238535 C141.417267,489.17515 141.234404,488.889916 141.297366,488.60195 L141.870592,485.989493 C141.934101,485.700981 142.221536,485.517929 142.508423,485.581314 C142.798047,485.644699 142.98091,485.929933 142.917401,486.217899 L142.344722,488.830356 C142.289425,489.080618 142.068237,489.250556 141.821317,489.250556 M140.675412,494.474377 C140.637088,494.474377 140.598763,494.470552 140.560439,494.461809 C140.270814,494.39897 140.087951,494.113737 140.151461,493.825224 L140.724687,491.213314 C140.788196,490.924255 141.075631,490.743935 141.362517,490.805135 C141.651594,490.867974 141.834457,491.153754 141.771496,491.44172 L141.198269,494.05363 C141.142972,494.303892 140.921785,494.474377 140.675412,494.474377 M139.562904,499.543013 C139.525127,499.543013 139.486803,499.539188 139.448478,499.530992 C139.158854,499.467606 138.975991,499.182373 139.038953,498.894407 L139.578234,496.437681 C139.641744,496.148622 139.929725,495.96557 140.216065,496.028955 C140.505142,496.092341 140.688005,496.377574 140.625043,496.66554 L140.086309,499.122812 C140.031012,499.373075 139.809824,499.543013 139.562904,499.543013" id="Fill-22" fill="#0071BC"></path>
                <polygon id="Fill-24" fill="#6D8FB4" points="155.17103 388.186128 102.611598 422.776454 83.723052 351.468023 123.174381 334.802068"></polygon>
                <path d="M87.1930148,355.213874 C86.9679947,355.213874 86.756662,355.074536 86.6772753,354.850502 L86.2184753,353.563125 C86.1171889,353.278984 86.2661073,352.966975 86.5508042,352.86534 C86.8349536,352.765891 87.1492152,352.911787 87.2499541,353.197567 L87.7087542,354.484397 C87.8100406,354.769084 87.6611222,355.081093 87.3764253,355.182181 C87.3162009,355.203492 87.2537866,355.213874 87.1930148,355.213874" id="Fill-26" fill="#AAC5E0"></path>
                <path d="M89.0349491,360.381413 C88.809929,360.381413 88.5985963,360.242075 88.5192097,360.018041 L87.5983246,357.433998 C87.4970382,357.149857 87.6459566,356.837848 87.9306535,356.736213 C88.214803,356.635125 88.5285171,356.783206 88.630351,357.06844 L89.5506885,359.651936 C89.6519749,359.936623 89.5030565,360.248632 89.2183596,360.34972 C89.1581353,360.371031 89.0957209,360.381413 89.0349491,360.381413 M90.8767192,365.548406 C90.6516991,365.548406 90.4403664,365.409067 90.3609798,365.185033 L89.4400947,362.60099 C89.3393558,362.31685 89.4877267,362.004841 89.7729711,361.903206 C90.0565731,361.803757 90.3702872,361.949652 90.4721211,362.235432 L91.3930061,364.818928 C91.493745,365.103616 91.3453741,365.415624 91.0601297,365.516713 C90.9999054,365.53857 90.9380385,365.548406 90.8767192,365.548406 M92.7190368,370.715398 C92.4934692,370.715398 92.282684,370.57606 92.2027499,370.352026 L91.2818648,367.768529 C91.1811259,367.483842 91.3294968,367.171834 91.6147412,367.070199 C91.8977957,366.970203 92.2126048,367.117191 92.3138912,367.402425 L93.2347762,369.985921 C93.3355151,370.270608 93.1871442,370.582617 92.9018998,370.683705 C92.8416755,370.705562 92.7798086,370.715398 92.7190368,370.715398 M94.5608069,375.882391 C94.3357868,375.882391 94.1244541,375.743052 94.04452,375.519018 L93.1241824,372.935522 C93.022896,372.650835 93.1718144,372.338826 93.4565113,372.237191 C93.7401133,372.136102 94.0543749,372.284184 94.1562088,372.569417 L95.0765463,375.152914 C95.1778327,375.437601 95.0289143,375.749609 94.7442174,375.851244 C94.6834456,375.872555 94.6215787,375.882391 94.5608069,375.882391 M96.402577,381.049383 C96.1775569,381.049383 95.9662242,380.910045 95.8868376,380.686011 L94.9659525,378.102514 C94.8646661,377.817827 95.0135845,377.505819 95.2982814,377.404184 C95.5818834,377.304734 95.896145,377.451176 95.9979789,377.73641 L96.9183164,380.319906 C97.0196028,380.604593 96.8712319,380.916602 96.5859875,381.018237 C96.5257632,381.039547 96.4633488,381.049383 96.402577,381.049383 M98.2443471,386.216376 C98.019327,386.216376 97.8079943,386.077037 97.7286077,385.853003 L96.8077226,383.269507 C96.7069837,382.98482 96.8553546,382.672811 97.140599,382.571176 C97.423106,382.47118 97.7379151,382.618715 97.839749,382.903402 L98.760634,385.486899 C98.8613729,385.771586 98.713002,386.083594 98.4277576,386.185229 C98.3675333,386.20654 98.3056664,386.216376 98.2443471,386.216376 M100.086665,391.383368 C99.8610971,391.383368 99.6503119,391.24403 99.5703778,391.019996 L98.6500402,388.436499 C98.5487538,388.151812 98.6971247,387.839804 98.9823691,387.738169 C99.2654236,387.637626 99.5802327,387.785161 99.6815191,388.070395 L100.602404,390.653891 C100.703143,390.938578 100.554772,391.250587 100.270075,391.352222 C100.209303,391.373533 100.147437,391.383368 100.086665,391.383368 M101.928435,396.550361 C101.703415,396.550361 101.492629,396.411569 101.412148,396.186988 L100.491263,393.604038 C100.389976,393.319898 100.538895,393.007343 100.823592,392.905708 C101.106646,392.806258 101.420908,392.9527 101.523289,393.237934 L102.444174,395.820884 C102.545461,396.105025 102.396542,396.41758 102.111845,396.519215 C102.051073,396.540525 101.989207,396.550361 101.928435,396.550361 M103.770205,401.717353 C103.545185,401.717353 103.3344,401.578561 103.254465,401.353981 L102.333033,398.771031 C102.231747,398.48689 102.380665,398.174335 102.665362,398.073247 C102.948416,397.972704 103.262678,398.119693 103.365059,398.404926 L104.285944,400.987876 C104.387231,401.272017 104.23886,401.584572 103.953615,401.686207 C103.893391,401.707518 103.830977,401.717353 103.770205,401.717353 M105.611975,406.884346 C105.386955,406.884346 105.17617,406.745554 105.096236,406.520973 L104.174803,403.938023 C104.074064,403.653883 104.222435,403.341328 104.507679,403.240239 C104.790186,403.138604 105.104995,403.287232 105.206829,403.571919 L106.128262,406.155415 C106.229001,406.43901 106.08063,406.751565 105.795386,406.8532 C105.735161,406.87451 105.673294,406.884346 105.611975,406.884346" id="Fill-28" fill="#AAC5E0"></path>
                <path d="M106.704992,411.035098 L106.016792,409.104579 C105.916053,408.819892 106.064424,408.507883 106.349669,408.406248 C106.631628,408.305159 106.947532,408.453241 107.048818,408.738474 L107.278218,409.382163 L107.85692,409.017697 C108.112052,408.857595 108.450403,408.933001 108.611367,409.188182 C108.773425,409.443362 108.697323,409.780506 108.440548,409.941702 L106.704992,411.035098 Z" id="Fill-30" fill="#AAC5E0"></path>
                <path d="M144.753696,386.964103 C144.571928,386.964103 144.39454,386.873943 144.289968,386.709469 C144.128458,386.453743 144.205107,386.116599 144.460786,385.955403 L146.900968,384.41831 C147.157195,384.257661 147.494451,384.334161 147.656509,384.588248 C147.81802,384.843975 147.741371,385.181119 147.485691,385.342315 L145.04551,386.879954 C144.954626,386.936782 144.853887,386.964103 144.753696,386.964103 M139.873334,390.039382 C139.691566,390.039382 139.514177,389.949222 139.409606,389.784748 C139.248095,389.529021 139.324744,389.191877 139.580424,389.030682 L142.020605,387.493589 C142.276833,387.333486 142.615184,387.408893 142.776147,387.663527 C142.937658,387.919254 142.861009,388.256398 142.605329,388.417593 L140.165148,389.955232 C140.074264,390.012061 139.973525,390.039382 139.873334,390.039382 M134.992424,393.114114 C134.810656,393.114114 134.633268,393.023954 134.528696,392.85948 C134.367186,392.603753 134.443835,392.266609 134.699514,392.105414 L137.140243,390.568321 C137.39647,390.408765 137.733727,390.483079 137.895785,390.738259 C138.057296,390.993986 137.980646,391.33113 137.724967,391.492325 L135.284238,393.029965 C135.193354,393.086793 135.092615,393.114114 134.992424,393.114114 M130.112062,396.188846 C129.929746,396.188846 129.752905,396.098686 129.648334,395.934212 C129.486823,395.678485 129.563472,395.341341 129.819152,395.180146 L132.259333,393.643053 C132.515561,393.482404 132.853912,393.558357 133.014875,393.812991 C133.176386,394.068718 133.099737,394.405862 132.844057,394.567057 L130.403876,396.104697 C130.312992,396.161525 130.211705,396.188846 130.112062,396.188846 M125.231699,399.263578 C125.049931,399.263578 124.872543,399.173418 124.767972,399.008944 C124.606461,398.753218 124.68311,398.416073 124.93879,398.254878 L127.378971,396.717785 C127.635198,396.557683 127.97355,396.633636 128.134513,396.887723 C128.295476,397.14345 128.218827,397.480594 127.963695,397.64179 L125.523514,399.178882 C125.43263,399.236257 125.331343,399.263578 125.231699,399.263578 M120.351337,402.338857 C120.169569,402.338857 119.991633,402.248697 119.887609,402.084223 C119.726099,401.829042 119.802748,401.491352 120.058428,401.330157 L122.498609,399.792517 C122.754836,399.631869 123.093187,399.707822 123.253603,399.962455 C123.415114,400.217636 123.339012,400.555326 123.083332,400.716522 L120.643151,402.254161 C120.552267,402.311536 120.450981,402.338857 120.351337,402.338857 M115.470427,405.413589 C115.288659,405.413589 115.110724,405.323429 115.0067,405.158955 C114.845189,404.903228 114.921838,404.566084 115.177518,404.404889 L117.617699,402.86725 C117.874474,402.707147 118.21173,402.7831 118.372693,403.037734 C118.534204,403.293461 118.458102,403.630605 118.202423,403.7918 L115.762242,405.328893 C115.671358,405.386268 115.570071,405.413589 115.470427,405.413589 M110.590065,408.488321 C110.408297,408.488321 110.230361,408.398161 110.126337,408.233687 C109.964827,407.97796 110.041476,407.640816 110.296608,407.479621 L112.736789,405.941982 C112.994111,405.781879 113.33082,405.857832 113.492331,406.112466 C113.653842,406.368193 113.57774,406.705337 113.32206,406.866532 L110.881879,408.403625 C110.790995,408.461 110.689709,408.488321 110.590065,408.488321" id="Fill-32" fill="#AAC5E0"></path>
                <path d="M149.634113,383.889426 C149.452345,383.889426 149.274957,383.799266 149.170385,383.634245 C149.008875,383.379065 149.085524,383.041921 149.341751,382.880726 L150.499153,382.151795 C150.753738,381.991146 151.092637,382.067646 151.254148,382.322826 C151.415659,382.578006 151.339009,382.91515 151.082782,383.076346 L149.92538,383.805276 C149.835043,383.862105 149.734304,383.889426 149.634113,383.889426" id="Fill-34" fill="#AAC5E0"></path>
                <path d="M28.6426834,384.887307 C28.4258757,384.887307 28.220018,384.757804 28.1340614,384.543606 C27.4863759,382.925642 27.1009401,382.007648 27.1003926,382.006009 C26.9832288,381.727332 27.1146274,381.407127 27.3933019,381.290739 C27.6741664,381.172711 27.9928079,381.304946 28.1094242,381.583076 C28.1094242,381.583076 28.4975975,382.507627 29.1513054,384.138158 C29.2635417,384.418474 29.1266682,384.736493 28.8458037,384.848511 C28.7795569,384.875285 28.7105727,384.887307 28.6426834,384.887307 L28.6426834,384.887307 Z M30.6361094,389.990914 C30.4149218,389.990914 30.206874,389.85704 30.1242024,389.63847 C29.7732587,388.718837 29.4436672,387.864775 29.139808,387.087213 C29.0303092,386.80635 29.1693727,386.489424 29.4513322,386.379593 C29.7316491,386.269761 30.0497432,386.408553 30.1597895,386.690508 C30.4647437,387.471349 30.7959776,388.327051 31.1474688,389.249962 C31.2547777,389.531917 31.1135242,389.847751 30.8304698,389.95485 C30.766413,389.979439 30.7007137,389.990914 30.6361094,389.990914 L30.6361094,389.990914 Z M32.5485062,395.122389 C32.3251286,395.122389 32.1148909,394.98469 32.0338618,394.762841 C31.7102928,393.873808 31.3938412,393.017014 31.088887,392.197377 C30.9832206,391.914329 31.1277591,391.599588 31.411361,391.494675 C31.6955104,391.389761 32.0103195,391.533471 32.1154384,391.816519 C32.4214876,392.639435 32.7384866,393.498415 33.0626031,394.389633 C33.166627,394.673228 33.0193511,394.986329 32.7357492,395.089603 C32.6733349,395.112007 32.610373,395.122389 32.5485062,395.122389 L32.5485062,395.122389 Z M34.3787789,400.282278 C34.1515689,400.282278 33.9391412,400.140207 33.8608495,399.913988 C33.5575378,399.035337 33.2558686,398.173625 32.9580318,397.334863 C32.8567454,397.050722 33.0062113,396.738167 33.2909082,396.637625 C33.5767001,396.537083 33.8893192,396.686257 33.9900581,396.969851 C34.2889899,397.811892 34.5912066,398.675243 34.8961608,399.557719 C34.9947098,399.842952 34.8425064,400.153868 34.557262,400.252225 C34.4975851,400.272442 34.4379083,400.282278 34.3787789,400.282278 L34.3787789,400.282278 Z M36.1209051,405.471127 C35.8898626,405.471127 35.6757924,405.324139 35.6002382,405.093548 C35.3155413,404.217629 35.0286544,403.352092 34.7428625,402.49967 C34.6465035,402.213889 34.8008969,401.904613 35.0877838,401.808442 C35.3757657,401.712818 35.6845523,401.866363 35.7809113,402.153236 C36.0683457,403.008391 36.3557801,403.877206 36.641572,404.755857 C36.7351935,405.043277 36.5775152,405.350914 36.2900808,405.444353 C36.2336889,405.462385 36.177297,405.471127 36.1209051,405.471127 L36.1209051,405.471127 Z M37.7622924,410.692762 C37.5274174,410.692762 37.3095148,410.54031 37.2383405,410.304254 C36.9739009,409.428336 36.7050813,408.557881 36.4329767,407.695076 C36.3420927,407.40711 36.503056,407.10002 36.7915854,407.00986 C37.0806622,406.918607 37.3878064,407.080348 37.4781429,407.367768 C37.750795,408.234944 38.0207096,409.109223 38.2862442,409.988421 C38.3738433,410.27748 38.2101425,410.581838 37.9205182,410.669266 C37.8679587,410.685112 37.8148518,410.692762 37.7622924,410.692762 L37.7622924,410.692762 Z M39.2826834,415.950461 C39.0423335,415.950461 38.8216934,415.791452 38.7548991,415.548293 C38.5140017,414.671281 38.2659869,413.794269 38.0124972,412.919443 C37.9287306,412.629838 38.0962638,412.326572 38.3869831,412.242969 C38.679345,412.160459 38.9810142,412.326026 39.0647808,412.616178 C39.3193655,413.495375 39.5684753,414.377851 39.8110152,415.259234 C39.8909494,415.550479 39.7190362,415.851012 39.4277694,415.931337 C39.3790424,415.943904 39.3303154,415.950461 39.2826834,415.950461 L39.2826834,415.950461 Z M40.6514186,421.248596 C40.4039513,421.248596 40.1794787,421.080297 40.1192544,420.829488 C39.9084692,419.953023 39.6878291,419.07 39.4589765,418.184792 C39.3828749,417.891909 39.5586205,417.594107 39.8520773,417.519247 C40.1449866,417.442201 40.4433709,417.61815 40.5183776,417.91158 C40.7494201,418.802799 40.9717027,419.691285 41.1841304,420.574854 C41.2547571,420.868284 41.0735366,421.163354 40.7795323,421.233842 C40.7368277,421.243678 40.6935757,421.248596 40.6514186,421.248596 L40.6514186,421.248596 Z M41.8203185,426.594816 C41.5635438,426.594816 41.3346913,426.413403 41.2837743,426.152758 C41.1124087,425.273561 40.9273557,424.383981 40.7308053,423.486205 C40.666201,423.191136 40.853444,422.899892 41.1485433,422.835413 C41.4463801,422.771482 41.7360044,422.957813 41.8000612,423.252336 C41.9993491,424.158854 42.1860446,425.057177 42.3585052,425.94457 C42.4159921,426.240733 42.2221792,426.527606 41.9254374,426.58498 C41.8898503,426.591537 41.8553581,426.594816 41.8203185,426.594816 L41.8203185,426.594816 Z M42.7067114,431.992946 C42.4351544,431.992946 42.2002794,431.791862 42.1641448,431.516464 C42.053551,430.657484 41.9199624,429.753151 41.7672116,428.829693 C41.7173896,428.531892 41.9194149,428.250483 42.2177992,428.201851 C42.5227534,428.146116 42.7975955,428.354304 42.8468699,428.651559 C43.0023582,429.588131 43.1381368,430.504485 43.2509206,431.376579 C43.2886977,431.67602 43.0773649,431.949778 42.7773382,431.988575 C42.7532484,431.991307 42.7297062,431.992946 42.7067114,431.992946 L42.7067114,431.992946 Z M43.2131435,437.435337 C42.9273516,437.435337 42.6864542,437.214035 42.6672919,436.924976 C42.60433,435.978022 42.5347983,435.072596 42.4576016,434.212523 C42.4313219,433.91199 42.653057,433.646427 42.9547263,433.619653 C43.2607755,433.589053 43.5213826,433.81418 43.5487573,434.11526 C43.6265015,434.982982 43.6965807,435.897151 43.7600901,436.852848 C43.7797998,437.153928 43.5514948,437.414026 43.2503731,437.434244 C43.2377807,437.43479 43.2257358,437.435337 43.2131435,437.435337 L43.2131435,437.435337 Z M43.489628,442.892481 C43.1967186,442.892481 42.9541788,442.660797 42.9432289,442.366274 C42.9087368,441.435166 42.8687697,440.525915 42.8244227,439.643439 C42.8096403,439.341813 43.0423253,439.086086 43.344542,439.070239 C43.6308815,439.040186 43.902986,439.287717 43.9183158,439.588797 C43.9626629,440.475644 44.0026299,441.389266 44.0371221,442.325838 C44.0486194,442.627465 43.8126495,442.881006 43.5104328,442.891934 C43.5038628,442.892481 43.4967454,442.892481 43.489628,442.892481 L43.489628,442.892481 Z M43.6412838,448.355635 C43.3434471,448.355635 43.0992647,448.117941 43.0937898,447.819593 C43.0757225,446.895042 43.0549177,445.985245 43.0302804,445.092387 C43.0226155,444.79076 43.2607755,444.539405 43.5624447,444.530662 L43.578322,444.530662 C43.8734213,444.530662 44.1170562,444.765625 44.1252686,445.062333 C44.1499058,445.959016 44.1707106,446.872092 44.1887779,447.799375 C44.1942529,448.101001 43.953903,448.350171 43.6511387,448.355635 L43.6412838,448.355635 Z M43.7102681,453.819883 C43.4091463,453.819883 43.163869,453.57727 43.162774,453.276737 C43.1572991,452.35929 43.1485392,451.448946 43.1375893,450.548438 C43.1337568,450.246265 43.3757492,449.998735 43.6779659,449.99491 C44.0042724,449.979063 44.228745,450.233151 44.2325775,450.534777 C44.2435273,451.438018 44.2522872,452.350547 44.2577659,453.27018 C44.2588572,453.572353 44.0152223,453.818244 43.7130056,453.819883 L43.7102681,453.819883 Z M43.716838,459.280852 L43.714648,459.280852 C43.4124313,459.280306 43.168249,459.034415 43.1693403,458.732788 C43.1720814,458.055768 43.1731764,457.380933 43.1731764,456.707738 L43.1726289,456.006128 C43.1720814,455.705048 43.4162638,455.459157 43.719028,455.458611 L43.720123,455.458611 C44.0223397,455.458611 44.2670696,455.702863 44.2676171,456.003943 L44.2681646,456.707738 C44.2681646,457.382026 44.2670696,458.059046 44.2643321,458.736613 C44.2632371,459.037693 44.0185073,459.280852 43.716838,459.280852 L43.716838,459.280852 Z M43.676871,464.750018 L43.672491,464.750018 C43.3680843,464.746739 43.1260919,464.499209 43.1293769,464.198128 C43.1397793,463.287785 43.1479917,462.375802 43.1551091,461.464365 C43.1572991,461.163832 43.4020289,460.921766 43.7026032,460.921766 L43.7069831,460.921766 C44.0086524,460.923951 44.2522872,461.170389 44.2500973,461.472562 C44.2429798,462.385091 44.2347674,463.298167 44.224365,464.209603 C44.2210801,464.509591 43.9763502,464.750018 43.676871,464.750018 L43.676871,464.750018 Z M43.5963893,470.218636 L43.5876294,470.218636 C43.2848652,470.213172 43.0445153,469.964003 43.0488952,469.662923 C43.0658676,468.75695 43.0806499,467.845514 43.0943373,466.930252 C43.0981697,466.631358 43.3428996,466.391477 43.6418313,466.391477 L43.6494963,466.391477 C43.951713,466.395849 44.1931579,466.643926 44.1893254,466.946099 C44.1756381,467.862999 44.1608557,468.774982 44.1438834,469.682047 C44.1395035,469.980395 43.8947736,470.218636 43.5963893,470.218636 L43.5963893,470.218636 Z M43.484153,475.686709 L43.4715607,475.686709 C43.1693439,475.679606 42.930089,475.429343 42.936659,475.12717 C42.9574637,474.227755 42.9782685,473.316318 42.9974308,472.395046 C43.0034532,472.097791 43.2476356,471.860096 43.5449249,471.860096 L43.5558748,471.860096 C43.858639,471.866654 44.0984414,472.11637 44.092419,472.41745 C44.0732567,473.339815 44.0524519,474.252344 44.0316471,475.152852 C44.0250772,475.450107 43.7808948,475.686709 43.484153,475.686709 L43.484153,475.686709 Z M43.3434471,481.154782 L43.3270222,481.154782 C43.025353,481.146039 42.7871931,480.894683 42.7954055,480.592511 C42.8205902,479.700745 42.8452274,478.788762 42.8693172,477.860387 C42.8775296,477.55876 43.117332,477.33254 43.4310461,477.328169 C43.7332628,477.335819 43.9719703,477.586628 43.9643054,477.888254 C43.9402156,478.817177 43.9155784,479.730252 43.8903936,480.623657 C43.8816337,480.919819 43.6385464,481.154782 43.3434471,481.154782 L43.3434471,481.154782 Z M43.1748189,486.622308 C43.168249,486.622308 43.162774,486.622308 43.1567516,486.621761 C42.8539873,486.611926 42.6169224,486.359477 42.6273248,486.057851 C42.656342,485.176468 42.6853592,484.264485 42.7138289,483.325181 C42.7231363,483.029019 42.9662236,482.795695 43.2607755,482.795695 L43.2777478,482.795695 C43.580512,482.804984 43.8181244,483.056886 43.808817,483.358513 C43.7792524,484.29891 43.7502352,485.211985 43.721218,486.093369 C43.7113631,486.388984 43.4688232,486.622308 43.1748189,486.622308 L43.1748189,486.622308 Z M42.982101,492.088741 C42.975531,492.088741 42.9684136,492.088741 42.9612962,492.088195 C42.6596269,492.077266 42.423657,491.823725 42.4346069,491.521552 L42.5342508,488.789428 C42.5446532,488.494359 42.7877406,488.262675 43.0806499,488.262675 C43.0877673,488.262675 43.0943373,488.262675 43.1003597,488.263221 C43.4025764,488.273603 43.6390939,488.526598 43.628144,488.828225 L43.5279526,491.562534 C43.5180977,491.857057 43.2755578,492.088741 42.982101,492.088741 L42.982101,492.088741 Z M42.7620083,497.556267 C42.7537959,497.556267 42.746131,497.556267 42.7379186,497.555721 C42.4357019,497.543153 42.2019219,497.287973 42.2145143,496.986346 C42.2468164,496.238291 42.285141,495.319751 42.3278455,494.25313 C42.3398904,493.951503 42.5922852,493.700148 42.8966919,493.729108 C43.1989086,493.74113 43.4343311,493.995764 43.4217387,494.29739 C43.3790342,495.364558 43.3407096,496.28419 43.3084074,497.033339 C43.2963626,497.326769 43.0532752,497.556267 42.7620083,497.556267 L42.7620083,497.556267 Z" id="Fill-36" fill="#AAC5E0"></path>
                <path d="M157.361006,406.929972 C157.361006,408.640282 155.972014,410.026561 154.258357,410.026561 C152.544701,410.026561 151.155708,408.640282 151.155708,406.929972 C151.155708,405.220209 152.544701,403.83393 154.258357,403.83393 C155.972014,403.83393 157.361006,405.220209 157.361006,406.929972" id="Fill-38" fill="#F2F2F2"></path>
                <path d="M148.965732,445.908636 C148.965732,447.618399 147.57674,449.004679 145.863631,449.004679 C144.149974,449.004679 142.760982,447.618399 142.760982,445.908636 C142.760982,444.198327 144.149974,442.812047 145.863631,442.812047 C147.57674,442.812047 148.965732,444.198327 148.965732,445.908636" id="Fill-40" fill="#F2F2F2"></path>
                <path d="M141.300815,481.24374 C141.300815,482.954049 139.911822,484.340329 138.198713,484.340329 C136.485057,484.340329 135.096064,482.954049 135.096064,481.24374 C135.096064,479.533977 136.485057,478.147697 138.198713,478.147697 C139.911822,478.147697 141.300815,479.533977 141.300815,481.24374" id="Fill-42" fill="#F2F2F2"></path>
                <polygon id="Fill-44" fill="#AAC5E0" points="62.6448035 499.002271 115.204236 499.002271 115.204236 465.123936 62.6448035 465.123936"></polygon>
                <polygon id="Fill-46" fill="#6D8FB4" points="59.9073331 474.139945 118.215453 474.139945 118.215453 462.255206 59.9073331 462.255206"></polygon>
                <path d="M59.9070593,474.140218 C59.9070593,474.140218 86.3236489,479.058041 89.4717399,479.058041 C92.6198309,479.058041 118.215179,474.140218 118.215179,474.140218 L59.9070593,474.140218 Z" id="Fill-47" fill="#6D8FB4"></path>
                <path d="M92.8935779,473.252277 C92.8935779,475.176239 91.3310298,476.735735 89.4033031,476.735735 C87.4755765,476.735735 85.9130283,475.176239 85.9130283,473.252277 C85.9130283,471.328316 87.4755765,469.76882 89.4033031,469.76882 C91.3310298,469.76882 92.8935779,471.328316 92.8935779,473.252277" id="Fill-48" fill="#F2F2F2"></path>
                <path d="M321.144081,382.839252 C321.144081,382.839252 333.781887,400.919355 338.361675,429.333442 C342.94201,457.74753 345.689883,499.517877 345.689883,499.517877 L295.995487,499.517877 C295.995487,499.517877 291.415699,439.169088 293.705867,420.590646 C295.995487,402.012204 321.144081,382.839252 321.144081,382.839252" id="Fill-49" fill="#6D8FB4"></path>
                <path d="M260.007059,353.926771 L321.326396,382.839197 C321.326396,382.839197 309.200497,414.033494 306.988074,440.261883 C304.776197,466.490271 306.988074,499.275757 306.988074,499.275757 L203.015662,499.275757 L180.894164,392.176504 L206.334024,384.526557 L260.007059,353.926771 Z" id="Fill-50" fill="#759ABC"></path>
                <polygon id="Fill-51" fill="#AAC5E0" points="193.760275 386.712256 180.894164 392.176504 202.793927 499.275757 219.583381 499.275757"></polygon>
                <path d="M193.170021,391.928919 C192.919269,391.928919 192.693154,391.756248 192.636214,391.501615 L192.040541,388.835062 C191.973747,388.540539 192.159895,388.248748 192.454994,388.183177 C192.751188,388.118699 193.04355,388.302298 193.108702,388.59682 L193.704923,391.263373 C193.77117,391.557896 193.585022,391.849687 193.289922,391.915804 C193.249955,391.924547 193.209441,391.928919 193.170021,391.928919 M194.362463,397.262024 C194.111711,397.262024 193.885596,397.088808 193.828657,396.83472 L193.232435,394.168167 C193.166189,393.873644 193.352337,393.581307 193.647436,393.515736 C193.94363,393.451804 194.235445,393.635403 194.300596,393.929926 L194.896818,396.596479 C194.963064,396.891002 194.777464,397.182793 194.481817,397.248364 C194.44185,397.257653 194.401883,397.262024 194.362463,397.262024 M195.554358,402.595676 C195.303606,402.595676 195.077491,402.42246 195.021099,402.167826 L194.424878,399.500727 C194.358631,399.206204 194.544779,398.914413 194.839878,398.848842 C195.13662,398.78491 195.427339,398.968509 195.493039,399.263032 L196.08926,401.930131 C196.155506,402.224654 195.969358,402.516445 195.674259,402.582016 C195.634292,402.591305 195.594325,402.595676 195.554358,402.595676 M196.7468,407.928236 C196.496048,407.928236 196.269933,407.755565 196.213541,407.500931 L195.61732,404.834379 C195.551073,404.539856 195.736673,404.248065 196.03232,404.182494 C196.325777,404.118016 196.619781,404.302161 196.685481,404.596684 L197.281702,407.26269 C197.347949,407.55776 197.161801,407.84955 196.866701,407.915121 C196.826734,407.923864 196.78622,407.928236 196.7468,407.928236 M197.93979,413.261341 C197.689037,413.261341 197.462922,413.088671 197.405983,412.834037 L196.809214,410.167484 C196.742968,409.872961 196.929116,409.581171 197.224215,409.5156 C197.517672,409.451121 197.812224,409.63472 197.877923,409.929243 L198.474144,412.595796 C198.540938,412.890319 198.35479,413.182656 198.059691,413.248227 C198.019176,413.25697 197.979209,413.261341 197.93979,413.261341 M199.132232,418.594447 C198.881479,418.594447 198.655364,418.42123 198.598425,418.167143 L198.002204,415.50059 C197.935957,415.206067 198.122105,414.91373 198.417204,414.848159 C198.710661,414.784227 199.004666,414.967826 199.070365,415.262349 L199.666586,417.928902 C199.732833,418.223425 199.546685,418.515215 199.251585,418.580786 C199.211618,418.590076 199.171651,418.594447 199.132232,418.594447 M200.324126,423.927553 C200.073374,423.927553 199.847259,423.754336 199.790867,423.499702 L199.194646,420.833149 C199.128399,420.538626 199.314547,420.246835 199.609647,420.181264 C199.903651,420.117333 200.197108,420.300931 200.262807,420.595454 L200.859028,423.262007 C200.925275,423.55653 200.739127,423.848321 200.444028,423.913892 C200.40406,423.923181 200.364093,423.927553 200.324126,423.927553 M201.516568,429.260658 C201.265816,429.260658 201.039701,429.087988 200.983309,428.833354 L200.387088,426.166255 C200.320841,425.871732 200.506442,425.579941 200.801541,425.51437 C201.096093,425.450438 201.38955,425.634037 201.455249,425.92856 L202.05147,428.595659 C202.117717,428.890182 201.931569,429.181973 201.63647,429.247544 C201.596503,429.256833 201.555988,429.260658 201.516568,429.260658 M202.709011,434.593764 C202.458258,434.593764 202.232143,434.421094 202.175204,434.16646 L201.578983,431.499907 C201.512736,431.205384 201.698884,430.913593 201.993436,430.848022 C202.288535,430.782998 202.581992,430.967143 202.647691,431.261666 L203.243365,433.928219 C203.310159,434.222742 203.124011,434.515079 202.828912,434.58065 C202.788397,434.589393 202.74843,434.593764 202.709011,434.593764 M203.901453,439.92687 C203.6507,439.92687 203.424038,439.753653 203.367646,439.499565 L202.771425,436.833013 C202.705178,436.53849 202.891326,436.246152 203.186425,436.180581 C203.481525,436.116103 203.774434,436.300248 203.839586,436.594771 L204.435807,439.261324 C204.502054,439.555847 204.315906,439.847638 204.020806,439.913209 C203.980839,439.922498 203.940872,439.92687 203.901453,439.92687 M205.093347,445.259975 C204.842595,445.259975 204.61648,445.086759 204.560088,444.832125 L203.963867,442.166118 C203.89762,441.871049 204.083768,441.579258 204.378868,441.513687 C204.673967,441.449209 204.966876,441.633354 205.032028,441.927877 L205.628249,444.59443 C205.694496,444.888953 205.508348,445.180744 205.213249,445.246315 C205.173281,445.255604 205.133314,445.259975 205.093347,445.259975 M206.285789,450.592534 C206.035037,450.592534 205.808922,450.419864 205.751983,450.16523 L205.156309,447.498677 C205.089515,447.204155 205.275663,446.912364 205.570762,446.846793 C205.866409,446.782861 206.159318,446.96646 206.22447,447.260983 L206.820691,449.927536 C206.886938,450.222058 206.70079,450.513849 206.405691,450.57942 C206.365724,450.588709 206.325209,450.592534 206.285789,450.592534 M207.478232,455.926187 C207.227479,455.926187 207.001364,455.753516 206.944425,455.498882 L206.348204,452.83233 C206.281957,452.537807 206.468105,452.246016 206.763204,452.180445 C207.059399,452.11542 207.351213,452.299565 207.416365,452.594088 L208.012586,455.260641 C208.078833,455.555164 207.893232,455.847501 207.598133,455.913072 C207.557618,455.921815 207.517651,455.926187 207.478232,455.926187 M208.670674,461.259292 C208.419921,461.259292 208.193806,461.086076 208.137414,460.831988 L207.541193,458.165435 C207.474947,457.870912 207.661095,457.579121 207.956194,457.513004 C208.252388,457.448526 208.544203,457.632671 208.609354,457.927194 L209.205575,460.593747 C209.271822,460.88827 209.085674,461.180061 208.790575,461.245632 C208.750608,461.254921 208.710641,461.259292 208.670674,461.259292 M209.863116,466.592398 C209.612364,466.592398 209.386248,466.419181 209.329857,466.164547 L208.733635,463.498541 C208.667389,463.203472 208.853537,462.911681 209.148636,462.84611 C209.44483,462.781632 209.736645,462.965777 209.801796,463.2603 L210.398018,465.926853 C210.464264,466.221375 210.278116,466.513166 209.983017,466.578737 C209.94305,466.588026 209.902535,466.592398 209.863116,466.592398 M211.055558,471.924957 C210.804806,471.924957 210.578691,471.752287 210.521751,471.497653 L209.92553,468.8311 C209.859283,468.536577 210.045431,468.244786 210.340531,468.179215 C210.637272,468.114737 210.928539,468.298882 210.994239,468.593405 L211.59046,471.259958 C211.656706,471.554481 211.470558,471.846272 211.175459,471.911843 C211.134945,471.921132 211.094977,471.924957 211.055558,471.924957 M212.248,477.258063 C211.997248,477.258063 211.771133,477.085393 211.714193,476.830759 L211.117972,474.164206 C211.051725,473.869683 211.237873,473.577892 211.532973,473.512321 C211.825882,473.447843 212.120434,473.631442 212.186133,473.926511 L212.782354,476.592517 C212.848601,476.88704 212.663001,477.179378 212.367354,477.244949 C212.327387,477.253691 212.28742,477.258063 212.248,477.258063 M213.439895,482.591715 C213.189142,482.591715 212.963027,482.419045 212.906635,482.164411 L212.310414,479.497858 C212.244168,479.203335 212.430316,478.911544 212.725415,478.845427 C213.018872,478.780402 213.312876,478.965094 213.378575,479.259617 L213.974796,481.926169 C214.041043,482.220692 213.854895,482.512483 213.559248,482.578601 C213.519829,482.587343 213.479862,482.591715 213.439895,482.591715 M214.632337,487.92482 C214.381584,487.92482 214.155469,487.751604 214.099078,487.49697 L213.502856,484.830964 C213.43661,484.536441 213.62221,484.244103 213.917857,484.178532 C214.211861,484.113508 214.505318,484.298199 214.571017,484.592722 L215.167238,487.259275 C215.233485,487.553798 215.047337,487.845589 214.752238,487.91116 C214.712271,487.920449 214.671756,487.92482 214.632337,487.92482 M215.824779,493.25738 C215.574027,493.25738 215.347912,493.084709 215.290972,492.830076 L214.694751,490.163523 C214.628504,489.869 214.814652,489.577209 215.109752,489.511638 C215.403756,489.44716 215.697213,489.631305 215.76346,489.925828 L216.359133,492.592381 C216.425927,492.886904 216.239779,493.178695 215.94468,493.244266 C215.904166,493.253555 215.864198,493.25738 215.824779,493.25738 M217.017221,498.590485 C216.766469,498.590485 216.540354,498.417815 216.483414,498.163181 L215.887193,495.496628 C215.820946,495.202105 216.007094,494.910315 216.302194,494.844744 C216.596746,494.780266 216.890202,494.963864 216.955354,495.258934 L217.551575,497.92494 C217.617822,498.220009 217.431674,498.5118 217.136575,498.577371 C217.096608,498.586114 217.056641,498.590485 217.017221,498.590485" id="Fill-52" fill="#0071BC"></path>
                <path d="M183.46536,395.223969 C183.218988,395.223969 182.9978,395.053485 182.942503,394.803222 L182.369277,392.191312 C182.306315,391.903346 182.489178,391.617566 182.778255,391.554727 C183.069522,391.492981 183.352576,391.674394 183.416086,391.962906 L183.989312,394.575363 C184.052274,394.863329 183.869411,395.148563 183.580334,395.211948 C183.542009,395.220144 183.503137,395.223969 183.46536,395.223969 M184.611813,400.44779 C184.36544,400.44779 184.143705,400.277305 184.088956,400.027043 L183.515729,397.415133 C183.452768,397.12662 183.635631,396.841387 183.924708,396.778548 C184.215427,396.715162 184.499029,396.897668 184.562538,397.186727 L185.135764,399.798637 C185.198726,400.086603 185.015863,400.372383 184.726786,400.435222 C184.687914,400.443965 184.64959,400.44779 184.611813,400.44779 M185.757718,405.671064 C185.511345,405.671064 185.290158,405.501126 185.234861,405.250864 L184.662182,402.638407 C184.598673,402.350441 184.781536,402.065207 185.07116,402.001822 C185.361332,401.940622 185.644934,402.122035 185.708991,402.410001 L186.282217,405.022458 C186.345179,405.310424 186.162316,405.595658 185.872692,405.659043 C185.834367,405.667239 185.796042,405.671064 185.757718,405.671064 M186.90417,410.894885 C186.657798,410.894885 186.43661,410.7244 186.381314,410.474138 L185.808087,407.862774 C185.745125,407.574808 185.927988,407.289574 186.217065,407.226189 C186.507237,407.162804 186.791934,407.345856 186.854896,407.634368 L187.428122,410.245732 C187.491632,410.534245 187.308768,410.818932 187.019144,410.882317 C186.98082,410.89106 186.942495,410.894885 186.90417,410.894885 M188.050623,416.118706 C187.804251,416.118706 187.583063,415.948768 187.527766,415.698505 L186.95454,413.086048 C186.891578,412.798082 187.074441,412.512849 187.363518,412.449463 C187.652595,412.388264 187.938387,412.569677 188.001349,412.857643 L188.574575,415.470099 C188.637537,415.758065 188.454674,416.043845 188.165597,416.106684 C188.127272,416.114881 188.0884,416.118706 188.050623,416.118706 M189.197076,421.342526 C188.950703,421.342526 188.728968,421.172042 188.674219,420.921779 L188.100992,418.309869 C188.038031,418.021903 188.220894,417.736123 188.509971,417.673284 C188.7985,417.610445 189.084839,417.792951 189.147801,418.081463 L189.721027,420.693374 C189.783989,420.981886 189.601126,421.26712 189.312049,421.329959 C189.273177,421.338701 189.234853,421.342526 189.197076,421.342526 M190.342981,426.565801 C190.096608,426.565801 189.875421,426.395863 189.820124,426.1456 L189.247445,423.53369 C189.183936,423.245177 189.366799,422.959944 189.656423,422.897105 C189.948237,422.835905 190.230744,423.016772 190.294254,423.305284 L190.86748,425.917194 C190.930442,426.20516 190.747579,426.49094 190.457954,426.553779 C190.41963,426.562522 190.381305,426.565801 190.342981,426.565801 M191.489433,431.789621 C191.243061,431.789621 191.021873,431.619137 190.966576,431.368874 L190.39335,428.75751 C190.330388,428.469545 190.513251,428.184311 190.802328,428.120926 C191.094143,428.058087 191.377197,428.240593 191.440159,428.529105 L192.013385,431.140469 C192.076347,431.428981 191.894031,431.713668 191.604407,431.7776 C191.566082,431.785796 191.527758,431.789621 191.489433,431.789621 M192.635886,437.013442 C192.389514,437.013442 192.167778,436.842958 192.113029,436.592695 L191.539803,433.981331 C191.476841,433.692819 191.659704,433.408131 191.948781,433.344746 C192.2395,433.283547 192.523102,433.464413 192.586611,433.752926 L193.159838,436.364289 C193.2228,436.652255 193.039937,436.938035 192.75086,437.000874 C192.712535,437.009617 192.673663,437.013442 192.635886,437.013442 M193.782339,442.237263 C193.535966,442.237263 193.314231,442.067325 193.259482,441.817062 L192.686255,439.204605 C192.623294,438.916639 192.806157,438.630859 193.095233,438.56802 C193.385405,438.505728 193.669555,438.687688 193.733064,438.9762 L194.30629,441.588657 C194.369252,441.876622 194.186389,442.161856 193.897312,442.225241 C193.85844,442.233438 193.820116,442.237263 193.782339,442.237263 M194.928244,447.461083 C194.681871,447.461083 194.460684,447.290599 194.405387,447.040336 L193.832708,444.428426 C193.769199,444.14046 193.952062,443.85468 194.241686,443.791841 C194.53131,443.727909 194.81546,443.911508 194.879517,444.20002 L195.452743,446.811931 C195.515705,447.100443 195.332842,447.385677 195.043217,447.448516 C195.004893,447.457258 194.966568,447.461083 194.928244,447.461083 M196.074696,452.684358 C195.828324,452.684358 195.607136,452.51442 195.551839,452.264157 L194.978613,449.652247 C194.915651,449.364281 195.098514,449.079594 195.387591,449.015662 C195.677216,448.953369 195.96246,449.135329 196.025422,449.423841 L196.598648,452.035752 C196.66161,452.323717 196.479294,452.609498 196.18967,452.672336 C196.151345,452.680533 196.113021,452.684358 196.074696,452.684358 M197.221149,457.908178 C196.974777,457.908178 196.753041,457.737694 196.698292,457.487431 L196.125066,454.876067 C196.062104,454.588102 196.244967,454.302321 196.534044,454.239483 C196.822573,454.175551 197.108913,454.35915 197.171874,454.647662 L197.745101,457.259026 C197.808063,457.547538 197.6252,457.832225 197.336123,457.895611 C197.297798,457.904353 197.258926,457.908178 197.221149,457.908178 M198.367602,463.131999 C198.121229,463.131999 197.899494,462.962061 197.844745,462.711799 L197.271518,460.099888 C197.208557,459.811376 197.39142,459.526142 197.680496,459.463303 C197.972858,459.401011 198.255365,459.582424 198.318327,459.871483 L198.891553,462.483393 C198.954515,462.771359 198.771652,463.057139 198.482575,463.119978 C198.443703,463.128721 198.405379,463.131999 198.367602,463.131999 M199.513507,468.35582 C199.267134,468.35582 199.045947,468.185335 198.99065,467.935073 L198.417971,465.323162 C198.354462,465.035197 198.537325,464.749416 198.826949,464.686578 C199.118763,464.623192 199.40127,464.806245 199.46478,465.094757 L200.038006,467.706667 C200.100968,467.99518 199.918105,468.280413 199.62848,468.343252 C199.590156,468.351995 199.551831,468.35582 199.513507,468.35582 M200.659959,473.579094 C200.413587,473.579094 200.192399,473.409156 200.137102,473.158893 L199.563876,470.546983 C199.500914,470.258471 199.683777,469.973237 199.972854,469.910398 C200.264669,469.848652 200.547175,470.030065 200.610685,470.318578 L201.183911,472.930488 C201.246873,473.218454 201.064557,473.504234 200.774933,473.567073 C200.736608,473.575816 200.698284,473.579094 200.659959,473.579094 M201.806412,478.802915 C201.56004,478.802915 201.338304,478.632977 201.283555,478.382714 L200.710329,475.770804 C200.647367,475.482838 200.83023,475.197604 201.119307,475.134219 C201.410026,475.070834 201.693628,475.253886 201.757137,475.542398 L202.330364,478.154309 C202.393326,478.442274 202.210462,478.726962 201.921386,478.790893 C201.883061,478.79909 201.844189,478.802915 201.806412,478.802915 M202.952864,484.027282 C202.706492,484.027282 202.484757,483.856797 202.430008,483.606535 L201.856781,480.994625 C201.793819,480.706112 201.976683,480.420879 202.265759,480.35804 C202.555931,480.29684 202.840081,480.477707 202.90359,480.766219 L203.476816,483.378129 C203.539778,483.666095 203.356915,483.951875 203.067838,484.014714 C203.028966,484.023457 202.990642,484.027282 202.952864,484.027282 M204.09877,489.250556 C203.852397,489.250556 203.63121,489.080618 203.575913,488.830356 L203.003234,486.217899 C202.939725,485.929933 203.122588,485.644699 203.412212,485.581314 C203.701836,485.518475 203.986533,485.700981 204.050043,485.989493 L204.623269,488.60195 C204.686231,488.889916 204.503368,489.17515 204.213743,489.238535 C204.175419,489.246731 204.137094,489.250556 204.09877,489.250556 M205.245222,494.474377 C204.99885,494.474377 204.777662,494.303892 204.722365,494.05363 L204.149139,491.44172 C204.086177,491.153754 204.26904,490.867974 204.558117,490.805135 C204.847741,490.745028 205.132986,490.925348 205.195948,491.213314 L205.769174,493.825224 C205.832136,494.113737 205.64982,494.39897 205.360196,494.461809 C205.321871,494.470552 205.283547,494.474377 205.245222,494.474377 M206.357183,499.543013 C206.11081,499.543013 205.889623,499.373075 205.834326,499.122812 L205.295592,496.66554 C205.23263,496.377574 205.415493,496.092341 205.70457,496.028955 C205.993099,495.966117 206.279439,496.148622 206.3424,496.437681 L206.881682,498.894407 C206.944644,499.182373 206.761781,499.467606 206.472156,499.530992 C206.433832,499.539188 206.395507,499.543013 206.357183,499.543013" id="Fill-53" fill="#0071BC"></path>
                <polygon id="Fill-54" fill="#6D8FB4" points="190.749057 388.186128 243.308489 422.776454 262.197035 351.468023 222.745706 334.802068"></polygon>
                <path d="M258.727072,355.213874 C258.6663,355.213874 258.603886,355.203492 258.543662,355.182181 C258.258965,355.081093 258.110046,354.769084 258.211333,354.484397 L258.670133,353.197567 C258.770872,352.911787 259.085133,352.765345 259.369283,352.86534 C259.65398,352.966975 259.802898,353.278984 259.701612,353.563125 L259.242812,354.850502 C259.163425,355.074536 258.952092,355.213874 258.727072,355.213874" id="Fill-55" fill="#AAC5E0"></path>
                <path d="M256.885685,360.381413 C256.824914,360.381413 256.762499,360.371031 256.702275,360.34972 C256.417578,360.248632 256.26866,359.936623 256.369946,359.651936 L257.290284,357.06844 C257.391022,356.783206 257.705284,356.634578 257.989981,356.736213 C258.274678,356.837848 258.423596,357.149857 258.32231,357.433998 L257.401425,360.018041 C257.322038,360.242075 257.110706,360.381413 256.885685,360.381413 M255.043915,365.548406 C254.982596,365.548406 254.920729,365.53857 254.860505,365.516713 C254.57526,365.415624 254.42689,365.103616 254.527628,364.818928 L255.448513,362.235432 C255.5498,361.949652 255.863514,361.80321 256.147663,361.903206 C256.432908,362.004841 256.581279,362.31685 256.48054,362.60099 L255.559655,365.185033 C255.480268,365.409067 255.268935,365.548406 255.043915,365.548406 M253.201598,370.715398 C253.140826,370.715398 253.078959,370.705562 253.018735,370.683705 C252.73349,370.582617 252.585119,370.270608 252.685858,369.985921 L253.606743,367.402425 C253.706935,367.117191 254.022291,366.969656 254.305893,367.070199 C254.591138,367.171834 254.739509,367.483842 254.63877,367.768529 L253.717885,370.352026 C253.637951,370.57606 253.427165,370.715398 253.201598,370.715398 M251.359828,375.882391 C251.299056,375.882391 251.237189,375.872555 251.176417,375.851244 C250.89172,375.749609 250.742802,375.437601 250.844088,375.152914 L251.764426,372.569417 C251.865712,372.284184 252.179974,372.135556 252.464123,372.237191 C252.74882,372.338826 252.897739,372.650835 252.796452,372.935522 L251.876115,375.519018 C251.79618,375.743052 251.584848,375.882391 251.359828,375.882391 M249.518058,381.049383 C249.457286,381.049383 249.394871,381.039547 249.334647,381.018237 C249.049403,380.916602 248.901032,380.604593 249.002318,380.319906 L249.922656,377.73641 C250.023942,377.451176 250.338751,377.304188 250.622353,377.404184 C250.90705,377.505819 251.055968,377.817827 250.954682,378.102514 L250.033797,380.686011 C249.95441,380.910045 249.743078,381.049383 249.518058,381.049383 M247.676287,386.216376 C247.614968,386.216376 247.553101,386.20654 247.492877,386.185229 C247.207633,386.083594 247.059262,385.771586 247.160001,385.486899 L248.080886,382.903402 C248.182172,382.617622 248.494244,382.470634 248.780036,382.571176 C249.06528,382.672811 249.213651,382.98482 249.112364,383.269507 L248.192027,385.853003 C248.11264,386.077037 247.901308,386.216376 247.676287,386.216376 M245.83397,391.383368 C245.773198,391.383368 245.711331,391.373533 245.650559,391.352222 C245.365862,391.250587 245.217492,390.938578 245.31823,390.653891 L246.239115,388.070395 C246.339854,387.785161 246.653021,387.63708 246.938265,387.738169 C247.22351,387.839804 247.371881,388.151812 247.270594,388.436499 L246.350257,391.019996 C246.270323,391.24403 246.059537,391.383368 245.83397,391.383368 M243.9922,396.550361 C243.931428,396.550361 243.869561,396.540525 243.808242,396.519215 C243.524092,396.41758 243.375174,396.105025 243.47646,395.820884 L244.397345,393.237934 C244.499179,392.9527 244.813441,392.805712 245.097043,392.905708 C245.38174,393.007343 245.530658,393.319898 245.429372,393.604038 L244.508487,396.186988 C244.428005,396.411569 244.21722,396.550361 243.9922,396.550361 M242.15043,401.717353 C242.089658,401.717353 242.027244,401.707518 241.967019,401.686207 C241.681775,401.584572 241.533404,401.272017 241.63469,400.987876 L242.555575,398.404926 C242.657409,398.119693 242.968933,397.972158 243.255273,398.073247 C243.53997,398.174335 243.688888,398.48689 243.587602,398.771031 L242.666169,401.353981 C242.586235,401.578561 242.37545,401.717353 242.15043,401.717353 M240.30866,406.884346 C240.24734,406.884346 240.185473,406.87451 240.125249,406.8532 C239.840005,406.751565 239.691634,406.43901 239.792373,406.155415 L240.713805,403.571919 C240.815092,403.287232 241.127711,403.138058 241.412955,403.240239 C241.6982,403.341328 241.84657,403.653883 241.745832,403.938023 L240.824399,406.520973 C240.744465,406.745554 240.53368,406.884346 240.30866,406.884346" id="Fill-56" fill="#AAC5E0"></path>
                <path d="M239.215095,411.035098 L237.478991,409.941702 C237.222764,409.780506 237.146662,409.443362 237.308173,409.188182 C237.469684,408.933001 237.809678,408.857595 238.063167,409.017697 L238.641321,409.382163 L238.871269,408.738474 C238.972555,408.453241 239.285722,408.304613 239.570419,408.406248 C239.855663,408.507883 240.004034,408.819892 239.903295,409.104579 L239.215095,411.035098 Z" id="Fill-57" fill="#AAC5E0"></path>
                <path d="M201.166391,386.964103 C201.0662,386.964103 200.965461,386.936782 200.874577,386.879954 L198.434396,385.342315 C198.178716,385.181119 198.102067,384.843975 198.263578,384.588248 C198.425636,384.334161 198.763987,384.257661 199.019119,384.41831 L201.459301,385.955403 C201.71498,386.116599 201.79163,386.453743 201.630119,386.709469 C201.525547,386.873943 201.348159,386.964103 201.166391,386.964103 M206.046754,390.039382 C205.946562,390.039382 205.845823,390.012061 205.754939,389.955232 L203.314758,388.417593 C203.059078,388.256398 202.982429,387.919254 203.14394,387.663527 C203.305998,387.408893 203.644349,387.333486 203.899482,387.493589 L206.339115,389.030682 C206.595343,389.191877 206.671992,389.529021 206.510481,389.784748 C206.40591,389.949222 206.228522,390.039382 206.046754,390.039382 M210.927663,393.114114 C210.827472,393.114114 210.726733,393.086793 210.635849,393.029965 L208.19512,391.492325 C207.939441,391.33113 207.862791,390.993986 208.024302,390.738259 C208.18636,390.483079 208.524712,390.408765 208.779844,390.568321 L211.220573,392.105414 C211.476252,392.266609 211.552902,392.603753 211.391391,392.85948 C211.286819,393.023954 211.109431,393.114114 210.927663,393.114114 M215.808026,396.188846 C215.708382,396.188846 215.607095,396.161525 215.516211,396.104697 L213.07603,394.567057 C212.82035,394.405862 212.743701,394.068718 212.905212,393.812991 C213.06727,393.558357 213.405074,393.482404 213.660754,393.643053 L216.100935,395.180146 C216.356615,395.341341 216.433264,395.678485 216.271753,395.934212 C216.167182,396.098686 215.989794,396.188846 215.808026,396.188846 M220.688388,399.263578 C220.588744,399.263578 220.487457,399.236257 220.396573,399.178882 L217.956392,397.64179 C217.700713,397.480594 217.624611,397.14345 217.785574,396.887723 C217.947632,396.633636 218.285984,396.557683 218.541116,396.717785 L220.981297,398.254878 C221.236977,398.416073 221.313626,398.753218 221.152115,399.008944 C221.047544,399.173418 220.870156,399.263578 220.688388,399.263578 M225.56875,402.338857 C225.469106,402.338857 225.36782,402.311536 225.276936,402.254161 L222.836755,400.716522 C222.581075,400.555326 222.504973,400.217636 222.666484,399.962455 C222.827995,399.707822 223.166894,399.631869 223.421478,399.792517 L225.861659,401.330157 C226.117339,401.491352 226.193988,401.829042 226.032478,402.084223 C225.928454,402.248697 225.750518,402.338857 225.56875,402.338857 M230.44966,405.413589 C230.350016,405.413589 230.24873,405.386268 230.157846,405.328893 L227.717664,403.7918 C227.461985,403.630605 227.385883,403.293461 227.547394,403.037734 C227.708357,402.7831 228.047256,402.707147 228.302388,402.86725 L230.742569,404.404889 C230.998249,404.566084 231.074898,404.903228 230.913387,405.158955 C230.809363,405.323429 230.631428,405.413589 230.44966,405.413589 M235.330022,408.488321 C235.230378,408.488321 235.129092,408.461 235.038208,408.403625 L232.598027,406.866532 C232.342347,406.705337 232.266245,406.368193 232.427756,406.112466 C232.589814,405.857832 232.927071,405.781879 233.183298,405.941982 L235.623479,407.479621 C235.878611,407.640816 235.95526,407.97796 235.79375,408.233687 C235.689726,408.398161 235.51179,408.488321 235.330022,408.488321" id="Fill-58" fill="#AAC5E0"></path>
                <path d="M196.286029,383.889426 C196.185838,383.889426 196.085099,383.862105 195.994762,383.805276 L194.83736,383.076346 C194.581132,382.91515 194.504483,382.578006 194.665994,382.322826 C194.828052,382.067646 195.167499,381.991146 195.420988,382.151795 L196.578391,382.880726 C196.834618,383.041921 196.911267,383.379065 196.749756,383.634245 C196.645185,383.799266 196.467797,383.889426 196.286029,383.889426" id="Fill-59" fill="#AAC5E0"></path>
                <path d="M317.277404,384.887307 C317.209514,384.887307 317.141078,384.875285 317.074283,384.848511 C316.793419,384.736493 316.656545,384.418474 316.768782,384.138158 C317.42249,382.507627 317.810663,381.583076 317.810663,381.583076 C317.926732,381.304946 318.246468,381.171618 318.526785,381.290739 C318.80546,381.407127 318.936858,381.727332 318.819695,382.006009 C318.819147,382.007648 318.433711,382.925642 317.786026,384.543606 C317.700069,384.757804 317.494211,384.887307 317.277404,384.887307 L317.277404,384.887307 Z M315.283978,389.990914 C315.219373,389.990914 315.153674,389.979439 315.089617,389.95485 C314.806563,389.847751 314.665309,389.531917 314.772618,389.249962 C315.124109,388.327051 315.455343,387.471349 315.760298,386.690508 C315.870344,386.408553 316.19008,386.270308 316.468755,386.379593 C316.750714,386.489424 316.889778,386.80635 316.780279,387.087213 C316.47642,387.864775 316.146281,388.718837 315.795885,389.63847 C315.713213,389.85704 315.505165,389.990914 315.283978,389.990914 L315.283978,389.990914 Z M313.371581,395.122389 C313.309714,395.122389 313.246752,395.112007 313.184338,395.089603 C312.900736,394.986329 312.75346,394.673228 312.857484,394.389633 C313.1816,393.498415 313.498599,392.639435 313.804649,391.816519 C313.909768,391.532925 314.224029,391.388122 314.508726,391.494675 C314.792328,391.599588 314.936866,391.914329 314.8312,392.197377 C314.526246,393.017014 314.209794,393.873808 313.886225,394.762841 C313.805196,394.98469 313.594958,395.122389 313.371581,395.122389 L313.371581,395.122389 Z M311.541308,400.282278 C311.482179,400.282278 311.422502,400.272442 311.362825,400.252225 C311.077581,400.153868 310.925377,399.842952 311.023926,399.557719 C311.32888,398.675243 311.631097,397.811892 311.930029,396.969851 C312.031315,396.686257 312.342839,396.536536 312.629179,396.637625 C312.913876,396.738167 313.063342,397.050722 312.962055,397.334863 C312.664219,398.173625 312.362549,399.035337 312.059238,399.913988 C311.980946,400.140207 311.768518,400.282278 311.541308,400.282278 L311.541308,400.282278 Z M309.799182,405.471127 C309.74279,405.471127 309.686398,405.462385 309.630006,405.444353 C309.342572,405.350914 309.184894,405.043277 309.278515,404.755857 C309.564307,403.877206 309.851741,403.008391 310.139176,402.153236 C310.236082,401.866363 310.547606,401.713911 310.832303,401.808442 C311.11919,401.904613 311.273584,402.213889 311.177225,402.49967 C310.891433,403.352092 310.604546,404.217629 310.319849,405.093548 C310.244295,405.324139 310.030224,405.471127 309.799182,405.471127 L309.799182,405.471127 Z M308.157795,410.692762 C308.104688,410.692762 308.052128,410.685112 307.999569,410.669266 C307.709945,410.581838 307.546244,410.27748 307.633843,409.988421 C307.899377,409.109223 308.169292,408.234944 308.441944,407.367768 C308.531733,407.079802 308.837235,406.917514 309.128502,407.00986 C309.417031,407.10002 309.577447,407.40711 309.48711,407.695076 C309.215006,408.557881 308.946186,409.428336 308.681747,410.304254 C308.610572,410.54031 308.39267,410.692762 308.157795,410.692762 L308.157795,410.692762 Z M306.637404,415.950461 C306.589772,415.950461 306.541045,415.943904 306.492318,415.931337 C306.201051,415.851012 306.029138,415.550479 306.109072,415.259234 C306.351612,414.377851 306.600722,413.495375 306.855306,412.616178 C306.93962,412.326026 307.24348,412.159913 307.533104,412.242969 C307.823823,412.326572 307.991357,412.629838 307.90759,412.919443 C307.6541,413.794269 307.406085,414.671281 307.165188,415.548293 C307.098394,415.791452 306.877754,415.950461 306.637404,415.950461 L306.637404,415.950461 Z M305.268668,421.248596 C305.226511,421.248596 305.183259,421.243678 305.140555,421.233842 C304.84655,421.163354 304.66533,420.868284 304.735957,420.574854 C304.948384,419.691285 305.170667,418.802799 305.401709,417.91158 C305.476716,417.61815 305.774553,417.441108 306.06801,417.519247 C306.361467,417.594107 306.537212,417.891909 306.461111,418.184792 C306.232258,419.07 306.011618,419.953023 305.800833,420.829488 C305.740608,421.080297 305.516136,421.248596 305.268668,421.248596 L305.268668,421.248596 Z M304.099769,426.594816 C304.064729,426.594816 304.030237,426.591537 303.99465,426.58498 C303.697908,426.527606 303.504095,426.240733 303.561582,425.94457 C303.734043,425.057177 303.920738,424.158854 304.120026,423.252336 C304.184083,422.95672 304.474255,422.769296 304.771544,422.835413 C305.066643,422.899892 305.253886,423.191136 305.189282,423.486205 C304.992731,424.383981 304.807678,425.273561 304.636313,426.152758 C304.585396,426.413403 304.356543,426.594816 304.099769,426.594816 L304.099769,426.594816 Z M303.213376,431.992946 C303.190381,431.992946 303.166839,431.991307 303.142749,431.988575 C302.842722,431.949778 302.630842,431.67602 302.669167,431.376579 C302.78195,430.504485 302.917729,429.588131 303.073217,428.651559 C303.122492,428.354304 303.396239,428.145023 303.702288,428.201851 C304.000672,428.250483 304.202697,428.531892 304.152875,428.829693 C304.000125,429.753151 303.866536,430.657484 303.755942,431.516464 C303.719808,431.791862 303.484933,431.992946 303.213376,431.992946 L303.213376,431.992946 Z M302.706944,437.435337 C302.694351,437.435337 302.682306,437.43479 302.669714,437.434244 C302.368592,437.414026 302.140287,437.153928 302.159997,436.852848 C302.223506,435.897151 302.293586,434.982982 302.37133,434.11526 C302.398704,433.81418 302.663692,433.596703 302.965361,433.619653 C303.26703,433.646427 303.488765,433.91199 303.462485,434.212523 C303.385289,435.072596 303.31521,435.978022 303.252795,436.924976 C303.233633,437.214035 302.992736,437.435337 302.706944,437.435337 L302.706944,437.435337 Z M302.430459,442.892481 C302.423342,442.892481 302.416224,442.892481 302.409654,442.891934 C302.107438,442.881006 301.871468,442.627465 301.882965,442.325838 C301.917457,441.389266 301.957424,440.475644 302.001771,439.588797 C302.017101,439.287717 302.267306,439.043465 302.575545,439.070239 C302.877762,439.086086 303.110447,439.341813 303.095664,439.643439 C303.051317,440.525915 303.01135,441.435166 302.976858,442.366274 C302.965908,442.660797 302.723368,442.892481 302.430459,442.892481 L302.430459,442.892481 Z M302.278803,448.355635 L302.268948,448.355635 C301.966184,448.350171 301.725834,448.101001 301.731309,447.799375 C301.749376,446.872092 301.770181,445.959016 301.794818,445.062333 C301.803578,444.760161 302.058711,444.535034 302.357095,444.530662 C302.659312,444.539405 302.897472,444.79076 302.889807,445.092387 C302.865169,445.985245 302.844365,446.895042 302.826297,447.819593 C302.820822,448.117941 302.57664,448.355635 302.278803,448.355635 L302.278803,448.355635 Z M302.209819,453.819883 L302.207082,453.819883 C301.904865,453.818244 301.66123,453.572353 301.662321,453.27018 C301.6678,452.350547 301.67656,451.438018 301.68751,450.534777 C301.691342,450.235337 301.936072,449.99491 302.235004,449.99491 L302.242121,449.99491 C302.544338,449.998735 302.78633,450.246265 302.782498,450.548438 C302.771548,451.448946 302.762788,452.35929 302.757313,453.276737 C302.756218,453.57727 302.510941,453.819883 302.209819,453.819883 L302.209819,453.819883 Z M302.203249,459.280852 C301.90158,459.280852 301.65685,459.037693 301.655755,458.736613 C301.653017,458.059046 301.651923,457.382026 301.651923,456.707738 L301.65247,456.003943 C301.653017,455.702863 301.898295,455.458611 302.199964,455.458611 L302.201059,455.458611 C302.503823,455.459157 302.748006,455.705048 302.747458,456.006128 L302.746911,456.707738 C302.746911,457.380933 302.748006,458.055768 302.750747,458.732788 C302.751838,459.034415 302.507656,459.280306 302.205439,459.280852 L302.203249,459.280852 Z M302.243216,464.750018 C301.943737,464.750018 301.699007,464.509591 301.695722,464.209603 C301.68532,463.298167 301.677107,462.385091 301.66999,461.472562 C301.6678,461.170389 301.911435,460.923951 302.213104,460.921766 L302.216389,460.921766 C302.518058,460.921766 302.762788,461.163832 302.764978,461.464365 C302.772095,462.375802 302.780308,463.287785 302.79071,464.198128 C302.793995,464.499209 302.552003,464.746739 302.249239,464.750018 L302.243216,464.750018 Z M302.32315,470.218636 C302.024766,470.218636 301.780584,469.980395 301.775656,469.682047 C301.759231,468.774982 301.744449,467.862999 301.730762,466.946099 C301.726929,466.643926 301.968374,466.395849 302.270591,466.391477 L302.278256,466.391477 C302.577188,466.391477 302.821917,466.631358 302.82575,466.930252 C302.839437,467.845514 302.85422,468.75695 302.870644,469.662923 C302.875572,469.964003 302.635222,470.213172 302.332458,470.218636 L302.32315,470.218636 Z M302.435934,475.686709 C302.139192,475.686709 301.89501,475.450107 301.88844,475.152852 C301.867635,474.252344 301.84683,473.339815 301.827668,472.41745 C301.821646,472.11637 302.061448,471.866654 302.364212,471.860096 L302.375162,471.860096 C302.672451,471.860096 302.916634,472.097245 302.922656,472.395046 C302.941819,473.316318 302.962623,474.227755 302.983428,475.12717 C302.989998,475.429343 302.750743,475.679606 302.448526,475.686709 L302.435934,475.686709 Z M302.57664,481.154782 C302.281541,481.154782 302.038453,480.919819 302.029693,480.623657 C302.004509,479.730252 301.979871,478.817177 301.955782,477.888254 C301.948117,477.586628 302.186824,477.335819 302.489041,477.328169 L302.498896,477.328169 C302.79947,477.328169 303.042557,477.563132 303.05077,477.860387 C303.07486,478.788762 303.099497,479.700745 303.124682,480.592511 C303.132894,480.894683 302.894734,481.146039 302.593065,481.154782 L302.57664,481.154782 Z M302.745268,486.622308 C302.451264,486.622308 302.208724,486.388984 302.198869,486.093369 C302.169852,485.211985 302.140835,484.29891 302.11127,483.358513 C302.101963,483.056886 302.339575,482.804984 302.642339,482.795695 L302.659312,482.795695 C302.953863,482.795695 303.196951,483.029019 303.206258,483.325181 C303.234728,484.264485 303.263745,485.176468 303.292762,486.057851 C303.303165,486.359477 303.0661,486.611926 302.763335,486.621761 C302.757313,486.622308 302.751838,486.622308 302.745268,486.622308 L302.745268,486.622308 Z M302.937986,492.088741 C302.644529,492.088741 302.401989,491.857057 302.391587,491.562534 L302.291943,488.828225 C302.280993,488.526598 302.517511,488.273603 302.819727,488.263221 C303.108257,488.232622 303.375434,488.487802 303.385836,488.789428 L303.48548,491.521552 C303.49643,491.823725 303.26046,492.077266 302.958791,492.088195 C302.951673,492.088741 302.944556,492.088741 302.937986,492.088741 L302.937986,492.088741 Z M303.158079,497.556267 C302.866812,497.556267 302.623725,497.326769 302.61168,497.033339 C302.579377,496.28419 302.541053,495.364558 302.498348,494.29739 C302.485756,493.995764 302.721178,493.74113 303.023395,493.729108 C303.314115,493.699601 303.579649,493.951503 303.592242,494.25313 C303.634946,495.319751 303.673271,496.238291 303.705573,496.986346 C303.718165,497.287973 303.484385,497.543153 303.182168,497.555721 C303.173956,497.556267 303.166291,497.556267 303.158079,497.556267 L303.158079,497.556267 Z" id="Fill-60" fill="#AAC5E0"></path>
                <path d="M188.559081,406.929972 C188.559081,408.640282 189.948073,410.026561 191.661182,410.026561 C193.374839,410.026561 194.763831,408.640282 194.763831,406.929972 C194.763831,405.220209 193.374839,403.83393 191.661182,403.83393 C189.948073,403.83393 188.559081,405.220209 188.559081,406.929972" id="Fill-61" fill="#F2F2F2"></path>
                <path d="M196.953808,445.908636 C196.953808,447.618399 198.3428,449.004679 200.056457,449.004679 C201.770113,449.004679 203.158558,447.618399 203.158558,445.908636 C203.158558,444.198327 201.770113,442.812047 200.056457,442.812047 C198.3428,442.812047 196.953808,444.198327 196.953808,445.908636" id="Fill-62" fill="#F2F2F2"></path>
                <path d="M204.618725,481.24374 C204.618725,482.954049 206.007717,484.340329 207.721374,484.340329 C209.43503,484.340329 210.823475,482.954049 210.823475,481.24374 C210.823475,479.533977 209.43503,478.147697 207.721374,478.147697 C206.007717,478.147697 204.618725,479.533977 204.618725,481.24374" id="Fill-63" fill="#F2F2F2"></path>
                <polygon id="Fill-64" fill="#AAC5E0" points="230.71618 499.002271 283.275612 499.002271 283.275612 465.123936 230.71618 465.123936"></polygon>
                <polygon id="Fill-65" fill="#6D8FB4" points="227.704963 474.139945 286.013082 474.139945 286.013082 462.255206 227.704963 462.255206"></polygon>
                <path d="M286.013028,474.140218 C286.013028,474.140218 259.596438,479.058041 256.448347,479.058041 C253.300256,479.058041 227.704908,474.140218 227.704908,474.140218 L286.013028,474.140218 Z" id="Fill-66" fill="#6D8FB4"></path>
                <path d="M253.026509,473.252277 C253.026509,475.176239 254.589057,476.735735 256.516784,476.735735 C258.444511,476.735735 260.007059,475.176239 260.007059,473.252277 C260.007059,471.328316 258.444511,469.76882 256.516784,469.76882 C254.589057,469.76882 253.026509,471.328316 253.026509,473.252277" id="Fill-67" fill="#F2F2F2"></path>
            </g>
        </g>
    </g>
</svg>