<?xml version="1.0" encoding="UTF-8"?>
<svg width="512px" height="512px" viewBox="0 0 512 512" version="1.1" xmlns="http://www.w3.org/2000/svg" xmlns:xlink="http://www.w3.org/1999/xlink">
    <!-- Generator: Sketch 56.3 (81716) - https://sketch.com -->
    <title>3</title>
    <desc>Created with Sketch.</desc>
    <g id="3" stroke="none" stroke-width="1" fill="none" fill-rule="evenodd">
        <g id="Group-41">
            <polygon id="Fill-1" fill="#003459" points="0 511.453502 511.454049 511.453502 511.454049 -1.13686838e-13 0 -1.13686838e-13"></polygon>
            <g id="Group-40" transform="translate(47.093048, 11.500560)">
                <path d="M363.151086,380.014942 C352.902872,374.975439 292.759026,346.408029 265.734188,333.581197 L265.734188,272.327926 L166.026158,272.327926 L166.026158,333.581197 C139.000772,346.408029 78.8569258,374.975439 68.6087119,380.014942 C55.3147825,386.552115 45.0764252,497.21804 45.0764252,497.21804 L386.68392,497.21804 C386.68392,497.21804 376.445016,386.552115 363.151086,380.014942" id="Fill-2" fill="#E9D6C7"></path>
                <path d="M181.837758,287.555847 C181.837758,287.555847 227.458327,324.559483 239.405176,327.008869 C251.352026,329.457708 265.719239,326.710431 265.719239,317.737015 C265.719239,308.763599 265.764689,274.353913 265.764689,274.353913 L181.837758,275.928245 L181.837758,287.555847 Z" id="Fill-4" fill="#DBBFAA"></path>
                <path d="M302.633453,152.722153 C301.923224,152.607706 302.3383,151.643941 301.733757,151.565635 C306.303425,128.05799 311.164413,101.207834 304.895014,88.3295281 C290.083703,57.9063239 243.396422,63.9364244 215.328965,63.9364244 C185.60449,63.9364244 141.340858,66.5900629 127.114924,100.072673 C122.293363,111.421002 125.088281,128.497708 128.730873,147.799834 C128.834368,148.349618 128.750587,151.270482 128.684875,153.212797 C128.566595,156.680707 128.677209,153.213344 128.677209,153.213344 C119.706531,154.192441 114.300139,168.291881 116.597842,184.706546 C118.89445,201.121212 128.02612,213.635368 136.992965,212.657366 C138.019703,212.545656 138.904067,212.240647 139.673436,211.779025 C150.550835,256.781361 173.455579,284.687825 215.328965,292.631218 C258.545051,284.343937 282.524721,256.382166 292.193034,211.610914 C292.820576,211.888544 293.522043,212.079107 294.314411,212.165627 C303.281256,213.143081 312.412379,200.628925 314.710082,184.21426 C317.007237,167.799594 311.521444,154.155205 302.633453,152.722153" id="Fill-6" fill="#E9D6C7"></path>
                <path d="M237.413688,271.713855 C226.243327,277.646484 221.842317,273.600862 223.195968,268.477577 C224.550715,263.354291 219.471784,261.196225 214.056084,261.196225 C208.639836,261.196225 203.562,263.354291 204.914557,268.477577 C206.269303,273.600862 201.868841,277.646484 190.697932,271.713855 C185.081265,268.730565 181.882223,266.146471 179.542903,263.431502 C177.026163,258.993804 176.683917,253.603292 185.777804,252.853637 C195.595061,252.044293 207.549577,251.855921 214.320024,251.855921 C221.089923,251.855921 232.516559,252.044293 242.333269,252.853637 C251.427703,253.603292 251.08491,258.993804 248.568717,263.431502 C246.229397,266.146471 243.030903,268.730565 237.413688,271.713855 M297.168743,174.262458 C289.552264,165.498223 291.777684,196.436165 287.715635,210.728358 C283.653585,225.021098 272.956892,230.257188 265.26156,238.579515 C262.546043,241.516259 260.52378,244.080092 258.897427,246.373414 C257.303382,234.214099 247.396867,232.060413 237.164533,230.084696 C226.154616,227.957842 219.507378,233.287023 215.751981,233.440897 C211.99768,233.287023 205.350441,227.957842 194.340524,230.084696 C184.108191,232.060413 174.201128,234.214099 172.607083,246.373414 C170.981825,244.080092 168.958467,241.516259 166.242403,238.579515 C158.548165,230.257188 148.05901,226.511647 143.996961,212.218907 C139.934912,197.926167 141.952794,165.498223 134.336315,174.262458 C129.800597,179.481025 129.505444,206.958723 135.599613,223.139566 C141.692687,239.319314 145.465607,244.748157 150.204482,258.501517 C154.944452,272.254877 177.837149,301.143724 215.751981,301.143724 C253.667908,301.143724 276.560606,272.254877 281.300028,258.501517 C286.039451,244.748157 289.750492,238.6852 295.844661,222.505453 C301.937735,206.32461 301.70446,179.481025 297.168743,174.262458" id="Fill-8" fill="#8C6239"></path>
                <path d="M124.574638,150.802892 C125.051044,152.970267 129.918604,166.473378 129.918604,166.473378 C127.404601,137.869827 137.76781,107.040856 146.923027,85.179277 C149.247562,79.6277733 159.243883,62.6616813 164.721461,60.4910203 C175.52384,56.2104813 203.312024,62.8297925 220.456631,63.5783529 C236.613928,64.2836535 276.941457,60.7177241 280.505744,61.2713412 C285.578103,62.0604235 288.387258,63.502785 293.586659,69.4288428 C301.493911,78.4416856 300.62926,114.662811 301.638475,125.866028 C302.177307,131.851226 301.638475,161.060963 301.638475,161.060963 C301.638475,161.060963 317.803985,118.536488 318.325295,112.529386 C321.351844,97.5269647 319.042095,101.995328 315.132276,79.1371294 C312.901928,66.0983786 308.531036,62.3561241 303.533149,52.736 C280.431271,8.26756791 228.760888,13.3804492 220.474154,13.0513455 C201.570676,12.2989519 187.103254,15.1601283 171.952982,22.5148578 C151.656426,32.3666139 140.058942,52.8816599 132.613312,73.1048385 C121.48402,103.330361 120.064657,130.277442 124.574638,150.802892" id="Fill-10" fill="#8C6239"></path>
                <path d="M274.462884,63.3264599 C274.470003,71.5491251 250.881862,77.2391701 232.531453,76.0864856 C203.81236,74.2827123 181.227958,85.1902289 163.99464,89.0830717 C137.120938,95.1536941 125.287988,144.638631 125.287988,144.638631 C125.287988,144.638631 112.481964,102.94157 124.106281,91.4245818 C127.055073,88.5026225 119.683368,99.4933733 116.286645,101.226507 C110.351278,77.3952342 126.649306,63.6670631 128.514957,62.2055358 C123.955693,64.0257369 121.624039,72.1082182 114.612651,74.8335914 C114.612651,74.8335914 108.761066,36.3733561 149.097905,32.6179594 C135.89159,33.552154 132.363992,35.7250053 128.888963,35.9538995 C131.094123,18.8306481 169.2718,15.7876706 171.421105,15.3994267 C163.752056,16.8094802 159.069584,17.8520984 155.451633,15.9333305 C166.709062,7.83661176 193.67257,1.51683422 210.593212,3.50624171 C209.493096,1.56009412 203.602084,1.98612193 201.280287,1.6296385 C213.238636,-2.10933048 229.571162,3.90105668 240.647338,7.89848984 C238.045173,6.30827807 236.434153,5.08659679 233.831988,3.49638503 C266.880356,-0.135255615 280.233973,24.6422588 281.50439,28.8921326 C283.690931,36.2036021 281.935346,38.8013861 280.133763,44.6343529 C276.390961,56.7564321 274.462884,63.3264599 274.462884,63.3264599" id="Fill-12" fill="#8C6239"></path>
                <path d="M273.360743,58.4216094 C273.421526,65.4631153 280.506291,71.7889164 288.031322,71.5211431 C292.231365,76.8289677 295.319245,82.9006853 297.068807,89.2905549 C297.524405,88.4412372 297.980003,87.5919196 298.435053,86.7420543 C302.780756,95.61088 307.802189,104.191124 313.451712,112.395719 C313.17901,110.455594 313.540422,108.443736 314.475712,106.69746 C315.954214,106.421473 317.582758,107.037515 318.44467,108.198414 C317.823151,98.4720565 316.71756,88.7708886 315.132276,79.1370747 C316.421312,80.4047538 317.710347,81.6718853 318.999382,82.9390169 C317.92117,74.1994233 314.535947,65.7089848 309.228122,58.4303709 C310.890069,57.8170661 313.014184,58.9007538 313.366287,60.5418918 C311.037919,46.3099345 300.794634,33.3922019 286.896161,27.160587 C285.212311,26.4054554 283.301757,25.7324629 281.522077,26.2466533 C279.581406,26.8079367 278.396961,28.6013057 277.517526,30.3125356 C274.10547,36.9499174 272.65599,44.4623538 273.370052,51.8088693 L273.360743,58.4216094 Z" id="Fill-14" fill="#8C6239"></path>
                <path d="M187.293926,377.47378 C187.293926,377.47378 225.303492,389.396535 268.14119,367.825181 L271.990773,484.166913 L154.271295,484.125844 L154.182037,440.642533 L160.354512,368.69695 L187.293926,377.47378 Z" id="Fill-16" fill="#C1272D"></path>
                <path d="M187.293926,391.812244 C187.293926,391.812244 225.303492,403.670383 268.14119,382.215666 L271.974345,497.429904 L154.182037,497.429904 L154.182037,454.639846 L160.354512,383.082507 L187.293926,391.812244 Z" id="Fill-18" fill="#E1E1DF"></path>
                <path d="M155.463406,322.074284 C155.463406,322.074284 115.577785,334.110391 102.757524,339.460381 C89.9547859,344.802156 54.8983923,350.59022 33.9951025,378.573895 C33.980865,378.567872 33.9726511,378.563491 33.9726511,378.563491 C33.9726511,378.563491 33.9600565,378.595799 33.9425335,378.642892 C33.931034,378.658772 33.918987,378.673557 33.9074875,378.689437 C33.9074875,378.689437 33.913511,378.703675 33.9167966,378.710246 C32.7712308,381.737343 14.2017848,431.273754 0.236505668,497.584051 L67.4974255,497.584051 C67.4990682,497.599384 67.5012586,497.614717 67.5029014,497.630049 L198.250178,497.584051 C198.694824,483.859166 199.142208,471.634139 199.623543,466.064017 C201.047286,449.569951 202.922794,414.234284 188.202931,386.595594 C188.202931,386.595594 160.686901,367.990554 155.463406,322.074284" id="Fill-20" fill="#911D26"></path>
                <path d="M431.945213,498.009586 C417.981577,431.707503 399.523292,382.691306 398.381012,379.685565 C398.38375,379.678994 398.390869,379.664756 398.390869,379.664756 C398.378822,379.649424 398.367322,379.634639 398.355275,379.618759 C398.337205,379.571665 398.325158,379.539357 398.325158,379.539357 C398.325158,379.539357 398.316396,379.543191 398.302159,379.549214 C377.399964,351.565539 342.342475,345.778023 329.539737,340.4357 C316.719476,335.086258 276.833855,323.049603 276.833855,323.049603 C271.610907,368.966421 243.691301,388.582318 243.691301,388.582318 C228.971438,416.221009 231.250522,450.54527 232.674813,467.039336 C233.1556,472.610006 233.636388,484.303867 234.081581,498.028752 L364.783956,498.009586 L431.945213,498.009586 Z" id="Fill-22" fill="#911D26"></path>
                <path d="M392.819542,373.025896 C392.819542,373.025896 369.457557,419.698392 368.396321,441.113135 C367.33618,462.528424 368.396321,457.171316 368.396321,457.171316 L248.764646,457.171316 C248.764646,457.171316 250.230554,394.645986 264.625694,368.552056 C276.254391,347.474632 283.877989,323.227188 283.877989,323.227188 C283.877989,323.227188 368.780732,344.621669 392.819542,373.025896" id="Fill-24" fill="#841E2A"></path>
                <path d="M44.2463281,367.825126 C44.2463281,367.825126 65.2109484,418.971462 66.2387816,440.386204 C67.2666148,461.801494 66.2387816,456.444386 66.2387816,456.444386 L179.935637,456.444386 C179.935637,456.444386 179.935637,398.757592 166.810367,367.825126 C157.472801,345.81953 148.15221,322.500258 148.15221,322.500258 C148.15221,322.500258 65.4256051,346.829293 44.2463281,367.825126" id="Fill-26" fill="#841E2A"></path>
                <path d="M197.813144,454.205057 C197.813144,457.941288 194.918017,460.970575 191.346611,460.970575 C187.775754,460.970575 184.880626,457.941288 184.880626,454.205057 C184.880626,450.468826 187.775754,447.440086 191.346611,447.440086 C194.918017,447.440086 197.813144,450.468826 197.813144,454.205057" id="Fill-28" fill="#A8A5A3"></path>
                <path d="M180.47091,498.047535 C180.480767,497.735954 181.428104,466.7323 182.183235,452.642717 C182.946033,438.423355 174.278174,389.78226 173.909096,387.718379 L171.88519,388.080339 C171.974996,388.583577 180.88051,438.549849 180.130854,452.532651 C179.373532,466.645781 178.425648,497.672981 178.416339,497.985109 L180.47091,498.047535 Z" id="Fill-30" fill="#657789"></path>
                <path d="M188.724898,386.481256 C188.724898,386.481256 174.750309,385.096392 162.800175,393.549046 C151.163263,401.779926 135.543704,417.686424 135.543704,417.686424 C135.543704,417.686424 131.109839,402.05427 130.160311,383.331498 C129.210237,364.608178 130.391396,352.599451 136.971828,334.229329 C143.783892,315.213046 147.212923,309.372413 166.206207,306.697966 C166.206207,306.697966 165.245727,321.912306 169.044932,340.189337 C172.843041,358.466916 180.178057,377.119596 188.724898,386.481256" id="Fill-32" fill="#751727"></path>
                <path d="M248.938288,498.047535 C248.928431,497.735954 247.981094,466.7323 247.225963,452.642717 C246.463165,438.423355 255.131024,389.78226 255.500102,387.718379 L257.524008,388.080339 C257.434202,388.583577 248.528688,438.549849 249.278344,452.532651 C250.035665,466.645781 250.98355,497.672981 250.992859,497.985109 L248.938288,498.047535 Z" id="Fill-34" fill="#657789"></path>
                <path d="M244.397642,457.332583 L235.401227,457.332583 C234.147785,457.332583 233.130904,456.316249 233.130904,455.06226 C233.130904,453.807723 234.147785,452.791389 235.401227,452.791389 L244.397642,452.791389 C245.651631,452.791389 246.667965,453.807723 246.667965,455.06226 C246.667965,456.316249 245.651631,457.332583 244.397642,457.332583" id="Fill-36" fill="#A88B7D"></path>
                <path d="M243.260728,388.751853 C243.260728,388.751853 257.235864,387.366989 269.185451,395.819643 C280.822362,404.050522 296.441922,419.957021 296.441922,419.957021 C296.441922,419.957021 300.876335,404.324867 301.825314,385.602095 C302.775389,366.879322 301.59423,354.870047 295.013798,336.499926 C288.201733,317.483643 284.772702,311.64301 265.779419,308.968563 C265.779419,308.968563 266.739898,324.182903 262.941241,342.459934 C259.143132,360.737513 251.807569,379.390193 243.260728,388.751853" id="Fill-38" fill="#751727"></path>
            </g>
        </g>
    </g>
</svg>