<svg width="39" height="34" viewBox="0 0 39 34" xmlns="http://www.w3.org/2000/svg"><title>Group 22</title><desc>Created with Sketch.</desc><g fill="none"><path d="M30.701 27.066l8.156 6.934h-21.857c-9.389 0-17-7.611-17-17s7.611-17 17-17 17 7.611 17 17c0 3.767-1.225 7.248-3.299 10.066z" fill="#F06A22"/><path d="M17 22.464l-5.527 2.906c-.244.129-.547.035-.675-.21-.051-.097-.069-.209-.05-.317l1.056-6.154-4.471-4.359c-.198-.193-.202-.509-.009-.707.077-.079.177-.13.286-.146l6.179-.898 2.763-5.599c.122-.248.422-.349.67-.227.099.049.178.128.227.227l2.763 5.599 6.179.898c.273.04.463.293.423.567-.016.109-.067.209-.146.286l-4.471 4.359 1.056 6.154c.047.272-.136.531-.408.577-.108.019-.22.001-.317-.05l-5.527-2.906z" fill="#fff"/></g></svg>